<svg xmlns="http://www.w3.org/2000/svg" xmlns:xlink="http://www.w3.org/1999/xlink" width="1080" zoomAndPan="magnify" viewBox="0 0 810 374.999991" height="500" preserveAspectRatio="xMidYMid meet" version="1.0"><defs><g/></defs><g fill="#000000" fill-opacity="1"><g transform="translate(75.910544, 129.294675)"><g><path d="M 13.671875 7.03125 C 10.367188 5.988281 8 4.335938 6.5625 2.078125 C 5.132812 -0.171875 4.289062 -2.726562 4.03125 -5.59375 C 3.769531 -8.457031 3.8125 -11.410156 4.15625 -14.453125 C 4.507812 -17.492188 4.816406 -20.316406 5.078125 -22.921875 C 5.773438 -29.515625 6.644531 -36.046875 7.6875 -42.515625 C 8.726562 -48.984375 10.242188 -55.34375 12.234375 -61.59375 C 13.890625 -66.707031 16.019531 -71.648438 18.625 -76.421875 C 21.226562 -81.203125 24.394531 -85.414062 28.125 -89.0625 C 31.851562 -92.707031 36.125 -95.460938 40.9375 -97.328125 C 45.757812 -99.191406 51.210938 -99.734375 57.296875 -98.953125 C 63.367188 -98.171875 68.398438 -96.085938 72.390625 -92.703125 C 76.378906 -89.316406 79.585938 -85.128906 82.015625 -80.140625 C 84.453125 -75.148438 86.273438 -69.875 87.484375 -64.3125 C 88.703125 -58.757812 89.570312 -53.425781 90.09375 -48.3125 C 90.445312 -45.007812 90.816406 -41.425781 91.203125 -37.5625 C 91.597656 -33.695312 91.96875 -29.8125 92.3125 -25.90625 C 92.65625 -22 92.828125 -18.398438 92.828125 -15.109375 C 92.828125 -11.109375 92.347656 -7.546875 91.390625 -4.421875 C 90.441406 -1.296875 88.234375 1.390625 84.765625 3.640625 C 82.585938 4.859375 80.285156 5.640625 77.859375 5.984375 C 75.429688 6.335938 73.128906 6.207031 70.953125 5.59375 C 68.785156 4.988281 67.050781 3.882812 65.75 2.28125 C 64.445312 0.675781 63.882812 -1.472656 64.0625 -4.171875 C 64.5 -9.640625 63.757812 -13.367188 61.84375 -15.359375 C 59.9375 -17.359375 56.378906 -18.226562 51.171875 -17.96875 C 48.046875 -17.882812 45.523438 -17.554688 43.609375 -16.984375 C 41.703125 -16.421875 40.316406 -15.289062 39.453125 -13.59375 C 38.585938 -11.90625 38.15625 -9.285156 38.15625 -5.734375 C 37.71875 -1.128906 36.347656 2.296875 34.046875 4.546875 C 31.742188 6.804688 28.8125 8.066406 25.25 8.328125 C 21.695312 8.585938 17.835938 8.15625 13.671875 7.03125 Z M 40.359375 -43.359375 C 40.273438 -42.660156 40.445312 -42.050781 40.875 -41.53125 C 41.3125 -41.007812 41.878906 -40.796875 42.578125 -40.890625 C 45.097656 -41.148438 47.613281 -41.253906 50.125 -41.203125 C 52.644531 -41.160156 55.117188 -41.140625 57.546875 -41.140625 L 62.109375 -41.140625 C 62.710938 -41.140625 63.207031 -41.332031 63.59375 -41.71875 C 63.988281 -42.113281 64.144531 -42.617188 64.0625 -43.234375 C 63.800781 -45.316406 63.5625 -47.765625 63.34375 -50.578125 C 63.125 -53.398438 62.710938 -56.15625 62.109375 -58.84375 C 61.503906 -61.539062 60.550781 -63.773438 59.25 -65.546875 C 57.945312 -67.328125 56.164062 -68.21875 53.90625 -68.21875 C 51.5625 -68.21875 49.609375 -67.347656 48.046875 -65.609375 C 46.484375 -63.878906 45.203125 -61.691406 44.203125 -59.046875 C 43.203125 -56.398438 42.421875 -53.664062 41.859375 -50.84375 C 41.296875 -48.019531 40.796875 -45.523438 40.359375 -43.359375 Z M 40.359375 -43.359375 "/></g></g><g transform="translate(172.648557, 129.294675)"><g/></g><g transform="translate(226.030234, 129.294675)"><g><path d="M 17.3125 4.03125 C 14.019531 3.425781 11.414062 2.582031 9.5 1.5 C 7.59375 0.414062 6.421875 -1.296875 5.984375 -3.640625 C 5.722656 -5.460938 5.503906 -8.066406 5.328125 -11.453125 C 5.160156 -14.835938 5.097656 -19.4375 5.140625 -25.25 C 5.179688 -31.070312 5.25 -38.410156 5.34375 -47.265625 C 5.25 -52.554688 5.03125 -57.914062 4.6875 -63.34375 C 4.34375 -68.769531 4.125 -74.128906 4.03125 -79.421875 C 3.945312 -84.628906 3.988281 -89.054688 4.15625 -92.703125 C 4.332031 -96.347656 5.25 -98.863281 6.90625 -100.25 C 8.46875 -101.644531 10.632812 -102.601562 13.40625 -103.125 C 16.1875 -103.644531 19.070312 -103.859375 22.0625 -103.765625 C 25.0625 -103.679688 27.644531 -103.289062 29.8125 -102.59375 C 31.8125 -101.988281 33.546875 -100.945312 35.015625 -99.46875 C 36.492188 -98 37.492188 -96.003906 38.015625 -93.484375 C 38.367188 -91.835938 38.476562 -90.101562 38.34375 -88.28125 C 38.21875 -86.457031 38.195312 -84.585938 38.28125 -82.671875 C 38.457031 -79.023438 38.585938 -75.570312 38.671875 -72.3125 C 38.753906 -69.0625 38.84375 -65.921875 38.9375 -62.890625 C 40.84375 -63.328125 43.441406 -63.609375 46.734375 -63.734375 C 50.035156 -63.867188 53.640625 -63.675781 57.546875 -63.15625 C 61.453125 -62.632812 65.207031 -61.546875 68.8125 -59.890625 C 72.414062 -58.242188 75.453125 -55.859375 77.921875 -52.734375 C 80.398438 -49.609375 81.898438 -45.53125 82.421875 -40.5 C 83.109375 -33.46875 82.648438 -27.128906 81.046875 -21.484375 C 79.441406 -15.835938 76.707031 -11.234375 72.84375 -7.671875 C 68.976562 -4.117188 64.070312 -1.800781 58.125 -0.71875 C 52.1875 0.363281 45.222656 -0.132812 37.234375 -2.21875 C 35.585938 0.476562 32.875 2.367188 29.09375 3.453125 C 25.320312 4.535156 21.394531 4.726562 17.3125 4.03125 Z M 39.71875 -41.671875 C 39.976562 -34.023438 40.109375 -27.816406 40.109375 -23.046875 C 42.710938 -22.523438 45.53125 -22.394531 48.5625 -22.65625 C 51.601562 -22.914062 54.273438 -23.675781 56.578125 -24.9375 C 58.878906 -26.195312 60.160156 -27.953125 60.421875 -30.203125 C 60.765625 -32.640625 60.476562 -34.851562 59.5625 -36.84375 C 58.65625 -38.84375 56.660156 -40.316406 53.578125 -41.265625 C 50.492188 -42.222656 45.875 -42.359375 39.71875 -41.671875 Z M 39.71875 -41.671875 "/></g></g><g transform="translate(312.612708, 129.294675)"><g><path d="M 15.109375 8.203125 C 12.328125 7.765625 10.132812 7.113281 8.53125 6.25 C 6.925781 5.382812 5.945312 4.039062 5.59375 2.21875 C 5.425781 0.738281 5.273438 -1.34375 5.140625 -4.03125 C 5.015625 -6.726562 4.953125 -10.394531 4.953125 -15.03125 C 4.953125 -19.675781 4.992188 -25.515625 5.078125 -32.546875 C 5.078125 -36.710938 4.898438 -40.941406 4.546875 -45.234375 C 4.203125 -49.535156 3.988281 -53.816406 3.90625 -58.078125 C 3.90625 -62.242188 3.96875 -65.78125 4.09375 -68.6875 C 4.226562 -71.59375 4.988281 -73.609375 6.375 -74.734375 C 7.769531 -75.773438 9.613281 -76.507812 11.90625 -76.9375 C 14.207031 -77.375 16.617188 -77.550781 19.140625 -77.46875 C 21.660156 -77.382812 23.832031 -77.082031 25.65625 -76.5625 C 27.300781 -76.125 28.773438 -75.296875 30.078125 -74.078125 C 31.378906 -72.867188 32.203125 -71.265625 32.546875 -69.265625 C 32.804688 -67.960938 32.894531 -66.570312 32.8125 -65.09375 C 32.726562 -63.625 32.726562 -62.148438 32.8125 -60.671875 C 33.15625 -48.691406 33.457031 -38.90625 33.71875 -31.3125 C 33.976562 -23.71875 34.128906 -17.707031 34.171875 -13.28125 C 34.222656 -8.851562 34.117188 -5.488281 33.859375 -3.1875 C 33.597656 -0.882812 33.117188 0.957031 32.421875 2.34375 C 31.296875 4.863281 29.0625 6.617188 25.71875 7.609375 C 22.375 8.609375 18.835938 8.804688 15.109375 8.203125 Z M 4.171875 -91.796875 C 4.171875 -95.085938 5.445312 -97.664062 8 -99.53125 C 10.5625 -101.40625 14.101562 -102.34375 18.625 -102.34375 C 22.957031 -102.34375 26.445312 -101.429688 29.09375 -99.609375 C 31.75 -97.785156 33.078125 -95.179688 33.078125 -91.796875 C 33.078125 -88.578125 31.835938 -86.015625 29.359375 -84.109375 C 26.890625 -82.203125 23.3125 -81.25 18.625 -81.25 C 13.84375 -81.25 10.238281 -82.242188 7.8125 -84.234375 C 5.382812 -86.234375 4.171875 -88.753906 4.171875 -91.796875 Z M 4.171875 -91.796875 "/></g></g><g transform="translate(350.761076, 129.294675)"><g><path d="M 34.765625 0.65625 C 29.210938 -0.476562 24.265625 -2.691406 19.921875 -5.984375 C 15.578125 -9.285156 12.035156 -13.34375 9.296875 -18.15625 C 6.566406 -22.976562 4.851562 -28.234375 4.15625 -33.921875 C 3.46875 -39.609375 3.992188 -45.316406 5.734375 -51.046875 C 7.554688 -57.035156 10.375 -62.175781 14.1875 -66.46875 C 18.007812 -70.757812 22.414062 -74.207031 27.40625 -76.8125 C 32.394531 -79.414062 37.601562 -81.148438 43.03125 -82.015625 C 48.457031 -82.890625 53.726562 -82.847656 58.84375 -81.890625 C 63.96875 -80.941406 68.546875 -79.054688 72.578125 -76.234375 C 76.617188 -73.410156 79.765625 -69.632812 82.015625 -64.90625 C 84.273438 -60.175781 85.234375 -54.46875 84.890625 -47.78125 C 84.710938 -44.914062 83.472656 -42.421875 81.171875 -40.296875 C 78.878906 -38.171875 75.910156 -36.367188 72.265625 -34.890625 C 68.617188 -33.421875 64.625 -32.296875 60.28125 -31.515625 C 55.945312 -30.734375 51.585938 -30.234375 47.203125 -30.015625 C 42.816406 -29.796875 38.84375 -29.816406 35.28125 -30.078125 C 36.9375 -25.390625 39.148438 -22.304688 41.921875 -20.828125 C 44.703125 -19.359375 47.894531 -18.925781 51.5 -19.53125 C 55.101562 -20.132812 58.859375 -21.265625 62.765625 -22.921875 C 66.054688 -24.648438 68.765625 -25.296875 70.890625 -24.859375 C 73.015625 -24.429688 75.164062 -22.695312 77.34375 -19.65625 C 78.8125 -17.75 79.4375 -15.578125 79.21875 -13.140625 C 79.007812 -10.710938 77.945312 -8.632812 76.03125 -6.90625 C 73.601562 -4.644531 70.628906 -2.863281 67.109375 -1.5625 C 63.597656 -0.257812 59.910156 0.648438 56.046875 1.171875 C 52.191406 1.691406 48.394531 1.882812 44.65625 1.75 C 40.925781 1.625 37.628906 1.257812 34.765625 0.65625 Z M 35.28125 -46.09375 C 35.28125 -46.09375 36.253906 -46.046875 38.203125 -45.953125 C 40.160156 -45.867188 42.59375 -45.828125 45.5 -45.828125 C 48.414062 -45.828125 51.347656 -45.976562 54.296875 -46.28125 C 57.242188 -46.59375 59.691406 -47.140625 61.640625 -47.921875 C 63.597656 -48.703125 64.578125 -49.828125 64.578125 -51.296875 C 64.578125 -54.078125 63.597656 -56.203125 61.640625 -57.671875 C 59.691406 -59.148438 57.265625 -60.019531 54.359375 -60.28125 C 51.453125 -60.539062 48.519531 -60.191406 45.5625 -59.234375 C 42.613281 -58.285156 40.160156 -56.703125 38.203125 -54.484375 C 36.253906 -52.273438 35.28125 -49.476562 35.28125 -46.09375 Z M 35.28125 -46.09375 "/></g></g><g transform="translate(439.556938, 129.294675)"><g><path d="M 14.71875 0.515625 C 11.757812 -0.0859375 9.429688 -0.929688 7.734375 -2.015625 C 6.046875 -3.097656 5.03125 -4.8125 4.6875 -7.15625 C 4.425781 -8.976562 4.296875 -11.582031 4.296875 -14.96875 C 4.296875 -18.351562 4.316406 -22.953125 4.359375 -28.765625 C 4.398438 -34.585938 4.335938 -41.925781 4.171875 -50.78125 C 4.171875 -54.769531 4.082031 -58.21875 3.90625 -61.125 C 3.726562 -64.039062 3.832031 -66.535156 4.21875 -68.609375 C 4.613281 -70.691406 5.550781 -72.429688 7.03125 -73.828125 C 8.414062 -75.128906 10.453125 -76.0625 13.140625 -76.625 C 15.835938 -77.1875 18.660156 -77.359375 21.609375 -77.140625 C 24.566406 -76.921875 27.128906 -76.351562 29.296875 -75.4375 C 31.460938 -74.53125 32.722656 -73.296875 33.078125 -71.734375 C 34.640625 -72.867188 36.003906 -73.738281 37.171875 -74.34375 C 38.347656 -74.945312 39.628906 -75.359375 41.015625 -75.578125 C 42.398438 -75.796875 44.179688 -75.90625 46.359375 -75.90625 C 49.222656 -75.90625 52.21875 -75.578125 55.34375 -74.921875 C 58.46875 -74.273438 61.375 -72.992188 64.0625 -71.078125 C 66.75 -69.171875 68.875 -66.3125 70.4375 -62.5 C 72.4375 -57.8125 73.757812 -51.820312 74.40625 -44.53125 C 75.0625 -37.238281 75.390625 -29.335938 75.390625 -20.828125 C 75.390625 -17.179688 75.234375 -14.164062 74.921875 -11.78125 C 74.617188 -9.394531 73.515625 -7.332031 71.609375 -5.59375 C 70.304688 -4.382812 68.523438 -3.539062 66.265625 -3.0625 C 64.015625 -2.582031 61.757812 -2.601562 59.5 -3.125 C 57.25 -3.644531 55.425781 -4.726562 54.03125 -6.375 C 52.90625 -7.675781 52.144531 -8.9375 51.75 -10.15625 C 51.363281 -11.375 51.191406 -12.804688 51.234375 -14.453125 C 51.273438 -16.097656 51.296875 -18.179688 51.296875 -20.703125 C 51.296875 -23.742188 51.207031 -26.71875 51.03125 -29.625 C 50.863281 -32.53125 50.5625 -35.71875 50.125 -39.1875 C 49.78125 -42.664062 49.039062 -45.269531 47.90625 -47 C 46.78125 -48.738281 45.484375 -49.609375 44.015625 -49.609375 C 40.796875 -49.609375 38.492188 -47.914062 37.109375 -44.53125 C 35.722656 -41.144531 35.03125 -35.585938 35.03125 -27.859375 C 35.03125 -21.703125 34.851562 -17.101562 34.5 -14.0625 C 34.15625 -11.019531 33.632812 -8.632812 32.9375 -6.90625 C 31.632812 -3.6875 29.222656 -1.445312 25.703125 -0.1875 C 22.191406 1.0625 18.53125 1.296875 14.71875 0.515625 Z M 14.71875 0.515625 "/></g></g><g transform="translate(518.848256, 129.294675)"><g><path d="M 52.734375 6.515625 C 48.046875 6.515625 43.488281 5.945312 39.0625 4.8125 C 34.632812 3.6875 30.640625 1.628906 27.078125 -1.359375 C 23.523438 -4.359375 20.679688 -8.613281 18.546875 -14.125 C 16.421875 -19.632812 15.273438 -26.734375 15.109375 -35.421875 C 15.109375 -37.328125 15.128906 -39.535156 15.171875 -42.046875 C 15.210938 -44.566406 15.273438 -47.4375 15.359375 -50.65625 L 15.234375 -50.65625 C 12.191406 -50.65625 9.71875 -51.476562 7.8125 -53.125 C 5.207031 -55.382812 3.90625 -58.25 3.90625 -61.71875 C 3.90625 -64.664062 4.816406 -66.960938 6.640625 -68.609375 C 8.804688 -70.609375 11.582031 -71.609375 14.96875 -71.609375 L 16.140625 -71.609375 C 16.234375 -73.253906 16.320312 -74.96875 16.40625 -76.75 C 16.488281 -78.53125 16.578125 -80.375 16.671875 -82.28125 C 16.753906 -83.757812 16.75 -85.191406 16.65625 -86.578125 C 16.570312 -87.972656 16.660156 -89.273438 16.921875 -90.484375 C 17.359375 -92.304688 18.207031 -93.78125 19.46875 -94.90625 C 20.726562 -96.039062 22.179688 -96.828125 23.828125 -97.265625 C 25.648438 -97.785156 27.84375 -98.148438 30.40625 -98.359375 C 32.96875 -98.578125 35.375 -98.382812 37.625 -97.78125 C 39.882812 -97.175781 41.492188 -95.960938 42.453125 -94.140625 C 43.234375 -92.660156 43.578125 -90.53125 43.484375 -87.75 C 43.398438 -84.976562 43.269531 -81.640625 43.09375 -77.734375 C 43.007812 -76.691406 42.96875 -75.648438 42.96875 -74.609375 C 42.96875 -73.566406 42.925781 -72.566406 42.84375 -71.609375 L 45.1875 -71.609375 C 49 -71.609375 51.863281 -70.523438 53.78125 -68.359375 C 55.6875 -66.191406 56.640625 -63.804688 56.640625 -61.203125 C 56.640625 -59.984375 56.46875 -58.8125 56.125 -57.6875 C 55.425781 -55.34375 54.515625 -53.734375 53.390625 -52.859375 C 52.171875 -51.734375 50.738281 -51.128906 49.09375 -51.046875 C 47.4375 -50.785156 45.65625 -50.65625 43.75 -50.65625 L 42.1875 -50.65625 C 42.007812 -43.007812 42.140625 -36.625 42.578125 -31.5 C 43.015625 -26.382812 44.164062 -22.523438 46.03125 -19.921875 C 47.894531 -17.316406 50.78125 -16.015625 54.6875 -16.015625 C 56.164062 -16.015625 57.359375 -15.253906 58.265625 -13.734375 C 59.179688 -12.210938 59.742188 -10.34375 59.953125 -8.125 C 60.171875 -5.914062 60.0625 -3.679688 59.625 -1.421875 C 59.195312 0.828125 58.394531 2.710938 57.21875 4.234375 C 56.050781 5.753906 54.554688 6.515625 52.734375 6.515625 Z M 52.734375 6.515625 "/></g></g><g transform="translate(582.776068, 129.294675)"><g><path d="M 25.65625 1.6875 C 19.832031 -0.738281 15.226562 -4.207031 11.84375 -8.71875 C 8.457031 -13.238281 6.15625 -18.253906 4.9375 -23.765625 C 3.726562 -29.273438 3.515625 -34.875 4.296875 -40.5625 C 5.078125 -46.25 6.789062 -51.566406 9.4375 -56.515625 C 12.082031 -61.460938 15.507812 -65.582031 19.71875 -68.875 C 23.9375 -72.175781 28.910156 -74.21875 34.640625 -75 C 40.367188 -75.78125 46.703125 -74.78125 53.640625 -72 C 58.847656 -69.832031 63.164062 -66.859375 66.59375 -63.078125 C 70.019531 -59.304688 72.578125 -55.097656 74.265625 -50.453125 C 75.960938 -45.804688 76.875 -41.007812 77 -36.0625 C 77.132812 -31.113281 76.550781 -26.34375 75.25 -21.75 C 73.863281 -17.0625 71.566406 -12.785156 68.359375 -8.921875 C 65.148438 -5.054688 61.265625 -1.910156 56.703125 0.515625 C 52.148438 2.953125 47.222656 4.34375 41.921875 4.6875 C 36.628906 5.03125 31.207031 4.03125 25.65625 1.6875 Z M 31.90625 -28.640625 C 32.507812 -25.953125 33.675781 -23.519531 35.40625 -21.34375 C 37.144531 -19.175781 39.25 -17.921875 41.71875 -17.578125 C 44.195312 -17.234375 46.785156 -18.363281 49.484375 -20.96875 C 51.472656 -22.957031 52.878906 -25.296875 53.703125 -27.984375 C 54.535156 -30.679688 54.953125 -33.460938 54.953125 -36.328125 C 54.953125 -39.191406 54.601562 -41.835938 53.90625 -44.265625 C 53.5625 -45.828125 52.890625 -47.453125 51.890625 -49.140625 C 50.890625 -50.835938 49.628906 -52.296875 48.109375 -53.515625 C 46.585938 -54.734375 44.914062 -55.382812 43.09375 -55.46875 C 41.269531 -55.550781 39.40625 -54.726562 37.5 -53 C 35.414062 -51 33.894531 -48.566406 32.9375 -45.703125 C 31.988281 -42.835938 31.46875 -39.90625 31.375 -36.90625 C 31.289062 -33.914062 31.46875 -31.160156 31.90625 -28.640625 Z M 23.5625 -79.15625 C 22.09375 -79.59375 21.3125 -80.375 21.21875 -81.5 C 21.132812 -82.632812 21.460938 -84.003906 22.203125 -85.609375 C 22.941406 -87.210938 23.785156 -88.796875 24.734375 -90.359375 C 26.992188 -94.347656 29.445312 -97.753906 32.09375 -100.578125 C 34.738281 -103.398438 37.800781 -104.8125 41.28125 -104.8125 C 44.832031 -104.8125 47.929688 -103.359375 50.578125 -100.453125 C 53.234375 -97.546875 55.6875 -94.179688 57.9375 -90.359375 C 59.5 -87.671875 60.519531 -85.367188 61 -83.453125 C 61.476562 -81.546875 60.847656 -80.113281 59.109375 -79.15625 C 57.203125 -78.113281 55.46875 -77.941406 53.90625 -78.640625 C 52.34375 -79.335938 50.78125 -80.488281 49.21875 -82.09375 C 47.65625 -83.695312 45.832031 -85.28125 43.75 -86.84375 C 42.882812 -87.363281 42.101562 -87.625 41.40625 -87.625 C 40.707031 -87.625 39.96875 -87.273438 39.1875 -86.578125 C 36.414062 -83.972656 34.160156 -82.0625 32.421875 -80.84375 C 30.679688 -79.632812 29.160156 -78.960938 27.859375 -78.828125 C 26.554688 -78.703125 25.125 -78.8125 23.5625 -79.15625 Z M 23.5625 -79.15625 "/></g></g><g transform="translate(661.155993, 129.294675)"><g><path d="M 52.734375 6.515625 C 48.046875 6.515625 43.488281 5.945312 39.0625 4.8125 C 34.632812 3.6875 30.640625 1.628906 27.078125 -1.359375 C 23.523438 -4.359375 20.679688 -8.613281 18.546875 -14.125 C 16.421875 -19.632812 15.273438 -26.734375 15.109375 -35.421875 C 15.109375 -37.328125 15.128906 -39.535156 15.171875 -42.046875 C 15.210938 -44.566406 15.273438 -47.4375 15.359375 -50.65625 L 15.234375 -50.65625 C 12.191406 -50.65625 9.71875 -51.476562 7.8125 -53.125 C 5.207031 -55.382812 3.90625 -58.25 3.90625 -61.71875 C 3.90625 -64.664062 4.816406 -66.960938 6.640625 -68.609375 C 8.804688 -70.609375 11.582031 -71.609375 14.96875 -71.609375 L 16.140625 -71.609375 C 16.234375 -73.253906 16.320312 -74.96875 16.40625 -76.75 C 16.488281 -78.53125 16.578125 -80.375 16.671875 -82.28125 C 16.753906 -83.757812 16.75 -85.191406 16.65625 -86.578125 C 16.570312 -87.972656 16.660156 -89.273438 16.921875 -90.484375 C 17.359375 -92.304688 18.207031 -93.78125 19.46875 -94.90625 C 20.726562 -96.039062 22.179688 -96.828125 23.828125 -97.265625 C 25.648438 -97.785156 27.84375 -98.148438 30.40625 -98.359375 C 32.96875 -98.578125 35.375 -98.382812 37.625 -97.78125 C 39.882812 -97.175781 41.492188 -95.960938 42.453125 -94.140625 C 43.234375 -92.660156 43.578125 -90.53125 43.484375 -87.75 C 43.398438 -84.976562 43.269531 -81.640625 43.09375 -77.734375 C 43.007812 -76.691406 42.96875 -75.648438 42.96875 -74.609375 C 42.96875 -73.566406 42.925781 -72.566406 42.84375 -71.609375 L 45.1875 -71.609375 C 49 -71.609375 51.863281 -70.523438 53.78125 -68.359375 C 55.6875 -66.191406 56.640625 -63.804688 56.640625 -61.203125 C 56.640625 -59.984375 56.46875 -58.8125 56.125 -57.6875 C 55.425781 -55.34375 54.515625 -53.734375 53.390625 -52.859375 C 52.171875 -51.734375 50.738281 -51.128906 49.09375 -51.046875 C 47.4375 -50.785156 45.65625 -50.65625 43.75 -50.65625 L 42.1875 -50.65625 C 42.007812 -43.007812 42.140625 -36.625 42.578125 -31.5 C 43.015625 -26.382812 44.164062 -22.523438 46.03125 -19.921875 C 47.894531 -17.316406 50.78125 -16.015625 54.6875 -16.015625 C 56.164062 -16.015625 57.359375 -15.253906 58.265625 -13.734375 C 59.179688 -12.210938 59.742188 -10.34375 59.953125 -8.125 C 60.171875 -5.914062 60.0625 -3.679688 59.625 -1.421875 C 59.195312 0.828125 58.394531 2.710938 57.21875 4.234375 C 56.050781 5.753906 54.554688 6.515625 52.734375 6.515625 Z M 52.734375 6.515625 "/></g></g></g><g fill="#000000" fill-opacity="1"><g transform="translate(62.838544, 315.948262)"><g><path d="M 11.203125 30.078125 C 9.378906 30.078125 7.878906 29.335938 6.703125 27.859375 C 5.535156 26.390625 4.734375 24.566406 4.296875 22.390625 C 3.859375 20.222656 3.75 18.078125 3.96875 15.953125 C 4.1875 13.828125 4.75 12.023438 5.65625 10.546875 C 6.570312 9.066406 7.769531 8.328125 9.25 8.328125 C 13.0625 8.328125 15.941406 7.738281 17.890625 6.5625 C 19.847656 5.394531 21.175781 3.335938 21.875 0.390625 C 22.570312 -2.554688 22.832031 -6.675781 22.65625 -11.96875 C 22.476562 -17.269531 22.171875 -23.976562 21.734375 -32.09375 C 21.304688 -40.207031 21.003906 -50.082031 20.828125 -61.71875 C 20.742188 -65.882812 20.632812 -69.484375 20.5 -72.515625 C 20.375 -75.554688 20.703125 -77.507812 21.484375 -78.375 C 22.960938 -79.9375 24.804688 -80.910156 27.015625 -81.296875 C 29.234375 -81.691406 31.515625 -81.738281 33.859375 -81.4375 C 36.203125 -81.132812 38.285156 -80.722656 40.109375 -80.203125 C 41.753906 -79.765625 43.226562 -78.9375 44.53125 -77.71875 C 45.832031 -76.507812 46.65625 -74.90625 47 -72.90625 C 47.257812 -71.601562 47.347656 -70.210938 47.265625 -68.734375 C 47.179688 -67.265625 47.179688 -65.796875 47.265625 -64.328125 C 47.867188 -51.210938 48.300781 -40.726562 48.5625 -32.875 C 48.820312 -25.019531 48.910156 -18.878906 48.828125 -14.453125 C 48.742188 -5.160156 47.613281 2.390625 45.4375 8.203125 C 43.269531 14.015625 40.40625 18.503906 36.84375 21.671875 C 33.289062 24.847656 29.300781 27.039062 24.875 28.25 C 20.445312 29.46875 15.890625 30.078125 11.203125 30.078125 Z M 18.625 -95.4375 C 18.625 -98.738281 19.898438 -101.320312 22.453125 -103.1875 C 25.015625 -105.050781 28.554688 -105.984375 33.078125 -105.984375 C 37.410156 -105.984375 40.898438 -105.070312 43.546875 -103.25 C 46.203125 -101.425781 47.53125 -98.820312 47.53125 -95.4375 C 47.53125 -92.226562 46.289062 -89.664062 43.8125 -87.75 C 41.34375 -85.84375 37.765625 -84.890625 33.078125 -84.890625 C 28.296875 -84.890625 24.691406 -85.882812 22.265625 -87.875 C 19.835938 -89.875 18.625 -92.394531 18.625 -95.4375 Z M 18.625 -95.4375 "/></g></g><g transform="translate(115.569223, 315.948262)"><g><path d="M 20.4375 -59.25 C 18.613281 -57.851562 16.789062 -57.132812 14.96875 -57.09375 C 13.144531 -57.050781 11.582031 -57.351562 10.28125 -58 C 8.976562 -58.65625 8.113281 -59.242188 7.6875 -59.765625 C 7.070312 -60.546875 7.195312 -61.847656 8.0625 -63.671875 C 8.9375 -65.492188 10.113281 -67.488281 11.59375 -69.65625 C 13.0625 -71.914062 13.753906 -73.628906 13.671875 -74.796875 C 13.585938 -75.972656 13.066406 -76.90625 12.109375 -77.59375 C 11.148438 -78.289062 10.019531 -79.03125 8.71875 -79.8125 C 7.414062 -80.59375 6.285156 -81.632812 5.328125 -82.9375 C 4.378906 -84.238281 3.90625 -86.101562 3.90625 -88.53125 C 3.90625 -91.832031 5.1875 -94.523438 7.75 -96.609375 C 10.3125 -98.691406 13.847656 -99.734375 18.359375 -99.734375 C 22.441406 -99.734375 25.523438 -98.929688 27.609375 -97.328125 C 29.691406 -95.722656 31.078125 -93.59375 31.765625 -90.9375 C 32.460938 -88.289062 32.8125 -85.320312 32.8125 -82.03125 C 32.8125 -79.769531 32.160156 -77.140625 30.859375 -74.140625 C 29.554688 -71.148438 27.972656 -68.285156 26.109375 -65.546875 C 24.242188 -62.816406 22.351562 -60.71875 20.4375 -59.25 Z M 20.4375 -59.25 "/></g></g><g transform="translate(152.285401, 315.948262)"><g><path d="M 34.765625 0.65625 C 29.210938 -0.476562 24.265625 -2.691406 19.921875 -5.984375 C 15.578125 -9.285156 12.035156 -13.34375 9.296875 -18.15625 C 6.566406 -22.976562 4.851562 -28.234375 4.15625 -33.921875 C 3.46875 -39.609375 3.992188 -45.316406 5.734375 -51.046875 C 7.554688 -57.035156 10.375 -62.175781 14.1875 -66.46875 C 18.007812 -70.757812 22.414062 -74.207031 27.40625 -76.8125 C 32.394531 -79.414062 37.601562 -81.148438 43.03125 -82.015625 C 48.457031 -82.890625 53.726562 -82.847656 58.84375 -81.890625 C 63.96875 -80.941406 68.546875 -79.054688 72.578125 -76.234375 C 76.617188 -73.410156 79.765625 -69.632812 82.015625 -64.90625 C 84.273438 -60.175781 85.234375 -54.46875 84.890625 -47.78125 C 84.710938 -44.914062 83.472656 -42.421875 81.171875 -40.296875 C 78.878906 -38.171875 75.910156 -36.367188 72.265625 -34.890625 C 68.617188 -33.421875 64.625 -32.296875 60.28125 -31.515625 C 55.945312 -30.734375 51.585938 -30.234375 47.203125 -30.015625 C 42.816406 -29.796875 38.84375 -29.816406 35.28125 -30.078125 C 36.9375 -25.390625 39.148438 -22.304688 41.921875 -20.828125 C 44.703125 -19.359375 47.894531 -18.925781 51.5 -19.53125 C 55.101562 -20.132812 58.859375 -21.265625 62.765625 -22.921875 C 66.054688 -24.648438 68.765625 -25.296875 70.890625 -24.859375 C 73.015625 -24.429688 75.164062 -22.695312 77.34375 -19.65625 C 78.8125 -17.75 79.4375 -15.578125 79.21875 -13.140625 C 79.007812 -10.710938 77.945312 -8.632812 76.03125 -6.90625 C 73.601562 -4.644531 70.628906 -2.863281 67.109375 -1.5625 C 63.597656 -0.257812 59.910156 0.648438 56.046875 1.171875 C 52.191406 1.691406 48.394531 1.882812 44.65625 1.75 C 40.925781 1.625 37.628906 1.257812 34.765625 0.65625 Z M 35.28125 -46.09375 C 35.28125 -46.09375 36.253906 -46.046875 38.203125 -45.953125 C 40.160156 -45.867188 42.59375 -45.828125 45.5 -45.828125 C 48.414062 -45.828125 51.347656 -45.976562 54.296875 -46.28125 C 57.242188 -46.59375 59.691406 -47.140625 61.640625 -47.921875 C 63.597656 -48.703125 64.578125 -49.828125 64.578125 -51.296875 C 64.578125 -54.078125 63.597656 -56.203125 61.640625 -57.671875 C 59.691406 -59.148438 57.265625 -60.019531 54.359375 -60.28125 C 51.453125 -60.539062 48.519531 -60.191406 45.5625 -59.234375 C 42.613281 -58.285156 40.160156 -56.703125 38.203125 -54.484375 C 36.253906 -52.273438 35.28125 -49.476562 35.28125 -46.09375 Z M 35.28125 -46.09375 "/></g></g><g transform="translate(241.081263, 315.948262)"><g><path d="M 42.0625 4.8125 C 37.71875 5.25 33.265625 5.097656 28.703125 4.359375 C 24.148438 3.617188 19.921875 2.226562 16.015625 0.1875 C 12.109375 -1.84375 8.941406 -4.597656 6.515625 -8.078125 C 5.472656 -9.722656 4.710938 -11.648438 4.234375 -13.859375 C 3.753906 -16.078125 3.796875 -18.207031 4.359375 -20.25 C 4.921875 -22.289062 6.160156 -23.914062 8.078125 -25.125 C 11.628906 -27.300781 14.664062 -27.953125 17.1875 -27.078125 C 19.707031 -26.210938 22.050781 -24.78125 24.21875 -22.78125 C 26.039062 -21.65625 27.882812 -20.550781 29.75 -19.46875 C 31.613281 -18.382812 33.4375 -17.816406 35.21875 -17.765625 C 37 -17.722656 38.628906 -18.742188 40.109375 -20.828125 C 41.054688 -22.390625 41.269531 -23.78125 40.75 -25 C 40.226562 -26.21875 39.296875 -27.257812 37.953125 -28.125 C 36.609375 -28.988281 35.195312 -29.742188 33.71875 -30.390625 C 32.25 -31.046875 31.035156 -31.632812 30.078125 -32.15625 C 27.128906 -33.71875 24.242188 -35.148438 21.421875 -36.453125 C 18.597656 -37.753906 16.097656 -39.226562 13.921875 -40.875 C 11.753906 -42.53125 10.019531 -44.59375 8.71875 -47.0625 C 7.414062 -49.539062 6.765625 -52.734375 6.765625 -56.640625 C 6.859375 -61.671875 8.179688 -65.960938 10.734375 -69.515625 C 13.296875 -73.078125 16.75 -75.832031 21.09375 -77.78125 C 25.4375 -79.738281 30.296875 -80.804688 35.671875 -80.984375 C 42.703125 -80.804688 49.144531 -79.457031 55 -76.9375 C 60.863281 -74.425781 65.226562 -70.222656 68.09375 -64.328125 C 69.570312 -61.628906 69.742188 -58.890625 68.609375 -56.109375 C 67.484375 -53.335938 65.316406 -51.601562 62.109375 -50.90625 C 59.585938 -50.125 57.132812 -50.144531 54.75 -50.96875 C 52.363281 -51.800781 50.0625 -52.953125 47.84375 -54.421875 C 45.632812 -55.898438 43.550781 -57.222656 41.59375 -58.390625 C 39.644531 -59.566406 37.820312 -60.132812 36.125 -60.09375 C 34.4375 -60.050781 32.941406 -58.898438 31.640625 -56.640625 C 30.941406 -55.253906 30.960938 -54.039062 31.703125 -53 C 32.441406 -51.957031 33.503906 -51.019531 34.890625 -50.1875 C 36.285156 -49.363281 37.71875 -48.671875 39.1875 -48.109375 C 40.664062 -47.546875 41.835938 -47.046875 42.703125 -46.609375 C 47.128906 -44.878906 51.335938 -42.816406 55.328125 -40.421875 C 59.328125 -38.035156 62.539062 -35.191406 64.96875 -31.890625 C 67.394531 -28.597656 68.523438 -24.648438 68.359375 -20.046875 C 68.265625 -14.835938 66.9375 -10.453125 64.375 -6.890625 C 61.820312 -3.335938 58.570312 -0.609375 54.625 1.296875 C 50.675781 3.210938 46.488281 4.382812 42.0625 4.8125 Z M 42.0625 4.8125 "/></g></g><g transform="translate(314.383418, 315.948262)"><g><path d="M 28.25 16.671875 C 26.257812 17.273438 23.851562 17.617188 21.03125 17.703125 C 18.207031 17.796875 15.492188 17.582031 12.890625 17.0625 C 10.285156 16.539062 8.242188 15.671875 6.765625 14.453125 C 5.203125 13.148438 4.332031 10.757812 4.15625 7.28125 C 3.988281 3.8125 3.945312 -0.347656 4.03125 -5.203125 C 4.125 -10.242188 4.320312 -15.300781 4.625 -20.375 C 4.925781 -25.457031 5.117188 -30.515625 5.203125 -35.546875 C 5.117188 -43.960938 5.054688 -50.882812 5.015625 -56.3125 C 4.972656 -61.738281 5.035156 -66.054688 5.203125 -69.265625 C 5.378906 -72.472656 5.597656 -74.90625 5.859375 -76.5625 C 6.296875 -78.8125 7.398438 -80.457031 9.171875 -81.5 C 10.953125 -82.539062 13.40625 -83.320312 16.53125 -83.84375 C 20.351562 -84.539062 24.019531 -84.367188 27.53125 -83.328125 C 31.050781 -82.285156 33.632812 -80.503906 35.28125 -77.984375 C 45.351562 -80.585938 53.707031 -80.609375 60.34375 -78.046875 C 66.988281 -75.492188 71.804688 -71.046875 74.796875 -64.703125 C 77.796875 -58.367188 78.816406 -50.773438 77.859375 -41.921875 C 77.335938 -37.148438 75.90625 -33.3125 73.5625 -30.40625 C 71.21875 -27.5 68.351562 -25.265625 64.96875 -23.703125 C 61.582031 -22.140625 58.066406 -21.097656 54.421875 -20.578125 C 50.773438 -20.054688 47.390625 -19.859375 44.265625 -19.984375 C 41.140625 -20.117188 38.710938 -20.359375 36.984375 -20.703125 C 36.890625 -17.921875 36.800781 -14.988281 36.71875 -11.90625 C 36.632812 -8.832031 36.503906 -5.554688 36.328125 -2.078125 C 36.242188 -0.347656 36.242188 1.382812 36.328125 3.125 C 36.410156 4.863281 36.320312 6.515625 36.0625 8.078125 C 35.539062 10.421875 34.585938 12.285156 33.203125 13.671875 C 31.816406 15.054688 30.164062 16.054688 28.25 16.671875 Z M 37.625 -40.75 C 43.445312 -40.144531 47.789062 -40.273438 50.65625 -41.140625 C 53.519531 -42.015625 55.40625 -43.40625 56.3125 -45.3125 C 57.226562 -47.21875 57.507812 -49.300781 57.15625 -51.5625 C 56.894531 -53.820312 55.679688 -55.515625 53.515625 -56.640625 C 51.347656 -57.765625 48.832031 -58.457031 45.96875 -58.71875 C 43.101562 -58.976562 40.453125 -58.847656 38.015625 -58.328125 C 38.015625 -53.898438 37.882812 -48.039062 37.625 -40.75 Z M 37.625 -40.75 "/></g></g><g transform="translate(396.408921, 315.948262)"><g><path d="M 34.765625 0.65625 C 29.210938 -0.476562 24.265625 -2.691406 19.921875 -5.984375 C 15.578125 -9.285156 12.035156 -13.34375 9.296875 -18.15625 C 6.566406 -22.976562 4.851562 -28.234375 4.15625 -33.921875 C 3.46875 -39.609375 3.992188 -45.316406 5.734375 -51.046875 C 7.554688 -57.035156 10.375 -62.175781 14.1875 -66.46875 C 18.007812 -70.757812 22.414062 -74.207031 27.40625 -76.8125 C 32.394531 -79.414062 37.601562 -81.148438 43.03125 -82.015625 C 48.457031 -82.890625 53.726562 -82.847656 58.84375 -81.890625 C 63.96875 -80.941406 68.546875 -79.054688 72.578125 -76.234375 C 76.617188 -73.410156 79.765625 -69.632812 82.015625 -64.90625 C 84.273438 -60.175781 85.234375 -54.46875 84.890625 -47.78125 C 84.710938 -44.914062 83.472656 -42.421875 81.171875 -40.296875 C 78.878906 -38.171875 75.910156 -36.367188 72.265625 -34.890625 C 68.617188 -33.421875 64.625 -32.296875 60.28125 -31.515625 C 55.945312 -30.734375 51.585938 -30.234375 47.203125 -30.015625 C 42.816406 -29.796875 38.84375 -29.816406 35.28125 -30.078125 C 36.9375 -25.390625 39.148438 -22.304688 41.921875 -20.828125 C 44.703125 -19.359375 47.894531 -18.925781 51.5 -19.53125 C 55.101562 -20.132812 58.859375 -21.265625 62.765625 -22.921875 C 66.054688 -24.648438 68.765625 -25.296875 70.890625 -24.859375 C 73.015625 -24.429688 75.164062 -22.695312 77.34375 -19.65625 C 78.8125 -17.75 79.4375 -15.578125 79.21875 -13.140625 C 79.007812 -10.710938 77.945312 -8.632812 76.03125 -6.90625 C 73.601562 -4.644531 70.628906 -2.863281 67.109375 -1.5625 C 63.597656 -0.257812 59.910156 0.648438 56.046875 1.171875 C 52.191406 1.691406 48.394531 1.882812 44.65625 1.75 C 40.925781 1.625 37.628906 1.257812 34.765625 0.65625 Z M 35.28125 -46.09375 C 35.28125 -46.09375 36.253906 -46.046875 38.203125 -45.953125 C 40.160156 -45.867188 42.59375 -45.828125 45.5 -45.828125 C 48.414062 -45.828125 51.347656 -45.976562 54.296875 -46.28125 C 57.242188 -46.59375 59.691406 -47.140625 61.640625 -47.921875 C 63.597656 -48.703125 64.578125 -49.828125 64.578125 -51.296875 C 64.578125 -54.078125 63.597656 -56.203125 61.640625 -57.671875 C 59.691406 -59.148438 57.265625 -60.019531 54.359375 -60.28125 C 51.453125 -60.539062 48.519531 -60.191406 45.5625 -59.234375 C 42.613281 -58.285156 40.160156 -56.703125 38.203125 -54.484375 C 36.253906 -52.273438 35.28125 -49.476562 35.28125 -46.09375 Z M 50.390625 -88.28125 C 49.085938 -86.457031 47.476562 -85.695312 45.5625 -86 C 43.65625 -86.300781 41.617188 -87.273438 39.453125 -88.921875 C 37.285156 -90.578125 35.09375 -92.550781 32.875 -94.84375 C 30.664062 -97.144531 28.5625 -99.382812 26.5625 -101.5625 C 24.476562 -103.90625 23.648438 -106.179688 24.078125 -108.390625 C 24.515625 -110.609375 25.691406 -112.28125 27.609375 -113.40625 C 30.554688 -115.40625 33.265625 -115.882812 35.734375 -114.84375 C 38.210938 -113.800781 40.515625 -111.847656 42.640625 -108.984375 C 44.765625 -106.117188 46.738281 -102.863281 48.5625 -99.21875 C 49.4375 -97.5625 50.265625 -95.734375 51.046875 -93.734375 C 51.828125 -91.742188 51.609375 -89.925781 50.390625 -88.28125 Z M 50.390625 -88.28125 "/></g></g><g transform="translate(482.600798, 315.948262)"><g><path d="M 16.921875 1.296875 C 13.972656 0.867188 11.628906 0.113281 9.890625 -0.96875 C 8.160156 -2.0625 7.078125 -3.734375 6.640625 -5.984375 C 6.378906 -7.804688 6.179688 -10.410156 6.046875 -13.796875 C 5.921875 -17.179688 5.769531 -21.78125 5.59375 -27.59375 C 5.425781 -33.414062 5.125 -40.753906 4.6875 -49.609375 C 4.507812 -53.597656 4.3125 -57.046875 4.09375 -59.953125 C 3.882812 -62.867188 3.929688 -65.363281 4.234375 -67.4375 C 4.535156 -69.519531 5.378906 -71.300781 6.765625 -72.78125 C 8.066406 -74.164062 10.0625 -75.160156 12.75 -75.765625 C 15.445312 -76.378906 18.25 -76.640625 21.15625 -76.546875 C 24.0625 -76.460938 26.644531 -76.007812 28.90625 -75.1875 C 31.164062 -74.363281 32.46875 -73.171875 32.8125 -71.609375 C 34.375 -72.828125 35.71875 -73.757812 36.84375 -74.40625 C 37.976562 -75.0625 39.238281 -75.519531 40.625 -75.78125 C 42.007812 -76.039062 43.789062 -76.171875 45.96875 -76.171875 C 49.613281 -76.171875 53.171875 -75.082031 56.640625 -72.90625 C 60.109375 -70.738281 63.125 -67.832031 65.6875 -64.1875 C 68.25 -60.539062 69.984375 -56.484375 70.890625 -52.015625 C 71.804688 -47.546875 71.484375 -43.054688 69.921875 -38.546875 C 69.484375 -37.242188 68.351562 -36.242188 66.53125 -35.546875 C 64.707031 -34.847656 62.710938 -34.476562 60.546875 -34.4375 C 58.378906 -34.394531 56.488281 -34.71875 54.875 -35.40625 C 53.269531 -36.101562 52.425781 -37.191406 52.34375 -38.671875 L 50.65625 -45.4375 C 50.300781 -46.832031 49.691406 -47.921875 48.828125 -48.703125 C 48.390625 -49.128906 47.820312 -49.429688 47.125 -49.609375 C 46.4375 -49.785156 45.703125 -49.875 44.921875 -49.875 L 44.53125 -49.875 C 41.320312 -49.78125 39.085938 -48 37.828125 -44.53125 C 36.566406 -41.0625 36.066406 -35.460938 36.328125 -27.734375 C 36.503906 -21.566406 36.484375 -16.960938 36.265625 -13.921875 C 36.046875 -10.890625 35.585938 -8.503906 34.890625 -6.765625 C 33.765625 -3.554688 31.460938 -1.257812 27.984375 0.125 C 24.515625 1.519531 20.828125 1.910156 16.921875 1.296875 Z M 16.921875 1.296875 "/></g></g><g transform="translate(557.725742, 315.948262)"><g><path d="M 34.765625 0.65625 C 29.210938 -0.476562 24.265625 -2.691406 19.921875 -5.984375 C 15.578125 -9.285156 12.035156 -13.34375 9.296875 -18.15625 C 6.566406 -22.976562 4.851562 -28.234375 4.15625 -33.921875 C 3.46875 -39.609375 3.992188 -45.316406 5.734375 -51.046875 C 7.554688 -57.035156 10.375 -62.175781 14.1875 -66.46875 C 18.007812 -70.757812 22.414062 -74.207031 27.40625 -76.8125 C 32.394531 -79.414062 37.601562 -81.148438 43.03125 -82.015625 C 48.457031 -82.890625 53.726562 -82.847656 58.84375 -81.890625 C 63.96875 -80.941406 68.546875 -79.054688 72.578125 -76.234375 C 76.617188 -73.410156 79.765625 -69.632812 82.015625 -64.90625 C 84.273438 -60.175781 85.234375 -54.46875 84.890625 -47.78125 C 84.710938 -44.914062 83.472656 -42.421875 81.171875 -40.296875 C 78.878906 -38.171875 75.910156 -36.367188 72.265625 -34.890625 C 68.617188 -33.421875 64.625 -32.296875 60.28125 -31.515625 C 55.945312 -30.734375 51.585938 -30.234375 47.203125 -30.015625 C 42.816406 -29.796875 38.84375 -29.816406 35.28125 -30.078125 C 36.9375 -25.390625 39.148438 -22.304688 41.921875 -20.828125 C 44.703125 -19.359375 47.894531 -18.925781 51.5 -19.53125 C 55.101562 -20.132812 58.859375 -21.265625 62.765625 -22.921875 C 66.054688 -24.648438 68.765625 -25.296875 70.890625 -24.859375 C 73.015625 -24.429688 75.164062 -22.695312 77.34375 -19.65625 C 78.8125 -17.75 79.4375 -15.578125 79.21875 -13.140625 C 79.007812 -10.710938 77.945312 -8.632812 76.03125 -6.90625 C 73.601562 -4.644531 70.628906 -2.863281 67.109375 -1.5625 C 63.597656 -0.257812 59.910156 0.648438 56.046875 1.171875 C 52.191406 1.691406 48.394531 1.882812 44.65625 1.75 C 40.925781 1.625 37.628906 1.257812 34.765625 0.65625 Z M 35.28125 -46.09375 C 35.28125 -46.09375 36.253906 -46.046875 38.203125 -45.953125 C 40.160156 -45.867188 42.59375 -45.828125 45.5 -45.828125 C 48.414062 -45.828125 51.347656 -45.976562 54.296875 -46.28125 C 57.242188 -46.59375 59.691406 -47.140625 61.640625 -47.921875 C 63.597656 -48.703125 64.578125 -49.828125 64.578125 -51.296875 C 64.578125 -54.078125 63.597656 -56.203125 61.640625 -57.671875 C 59.691406 -59.148438 57.265625 -60.019531 54.359375 -60.28125 C 51.453125 -60.539062 48.519531 -60.191406 45.5625 -59.234375 C 42.613281 -58.285156 40.160156 -56.703125 38.203125 -54.484375 C 36.253906 -52.273438 35.28125 -49.476562 35.28125 -46.09375 Z M 35.28125 -46.09375 "/></g></g><g transform="translate(646.521603, 315.948262)"><g/></g><g transform="translate(699.90328, 315.948262)"><g><path d="M 25.65625 -20.828125 C 23.832031 -20.304688 21.660156 -20.003906 19.140625 -19.921875 C 16.617188 -19.835938 14.1875 -20.007812 11.84375 -20.4375 C 9.5 -20.875 7.675781 -21.613281 6.375 -22.65625 C 4.988281 -23.78125 4.226562 -25.796875 4.09375 -28.703125 C 3.96875 -31.617188 3.90625 -35.160156 3.90625 -39.328125 C 3.90625 -43.578125 4.097656 -47.847656 4.484375 -52.140625 C 4.878906 -56.441406 5.078125 -60.675781 5.078125 -64.84375 C 4.992188 -70.132812 4.925781 -74.425781 4.875 -77.71875 C 4.832031 -81.019531 4.851562 -83.644531 4.9375 -85.59375 C 5.03125 -87.550781 5.117188 -89.113281 5.203125 -90.28125 C 5.296875 -91.457031 5.425781 -92.566406 5.59375 -93.609375 C 5.851562 -95.429688 6.804688 -96.773438 8.453125 -97.640625 C 10.109375 -98.515625 12.328125 -99.171875 15.109375 -99.609375 C 18.835938 -100.210938 22.375 -100.015625 25.71875 -99.015625 C 29.0625 -98.015625 31.296875 -96.257812 32.421875 -93.75 C 32.941406 -92.613281 33.375 -91.4375 33.71875 -90.21875 C 34.070312 -89.007812 34.289062 -87.296875 34.375 -85.078125 C 34.457031 -82.867188 34.457031 -79.8125 34.375 -75.90625 C 34.289062 -72 34.117188 -66.878906 33.859375 -60.546875 C 33.597656 -54.210938 33.25 -46.269531 32.8125 -36.71875 C 32.726562 -35.238281 32.726562 -33.757812 32.8125 -32.28125 C 32.894531 -30.8125 32.804688 -29.425781 32.546875 -28.125 C 32.203125 -26.21875 31.378906 -24.632812 30.078125 -23.375 C 28.773438 -22.113281 27.300781 -21.265625 25.65625 -20.828125 Z M 4.171875 -5.59375 C 4.171875 -8.632812 5.382812 -11.148438 7.8125 -13.140625 C 10.238281 -15.140625 13.84375 -16.140625 18.625 -16.140625 C 23.3125 -16.140625 26.890625 -15.207031 29.359375 -13.34375 C 31.835938 -11.476562 33.078125 -8.894531 33.078125 -5.59375 C 33.078125 -2.207031 31.75 0.394531 29.09375 2.21875 C 26.445312 4.039062 22.957031 4.953125 18.625 4.953125 C 14.101562 4.953125 10.5625 3.992188 8 2.078125 C 5.445312 0.171875 4.171875 -2.382812 4.171875 -5.59375 Z M 4.171875 -5.59375 "/></g></g></g></svg>