<svg xmlns="http://www.w3.org/2000/svg" xmlns:xlink="http://www.w3.org/1999/xlink" width="1080" zoomAndPan="magnify" viewBox="0 0 810 809.999993" height="1080" preserveAspectRatio="xMidYMid meet" version="1.0"><defs><g/><clipPath id="f375b473eb"><path d="M 99 64.265625 L 804.378906 64.265625 L 804.378906 810 L 99 810 Z M 99 64.265625 " clip-rule="nonzero"/></clipPath></defs><g fill="#000000" fill-opacity="1"><g transform="translate(402.849583, 403.29996)"><g><path d="M 2.84375 0 L 1.46875 0 L 1.46875 -9.09375 L 2.84375 -9.09375 Z M 1.34375 -11.5625 C 1.34375 -11.875 1.421875 -12.101562 1.578125 -12.25 C 1.734375 -12.394531 1.925781 -12.46875 2.15625 -12.46875 C 2.375 -12.46875 2.5625 -12.394531 2.71875 -12.25 C 2.882812 -12.101562 2.96875 -11.875 2.96875 -11.5625 C 2.96875 -11.25 2.882812 -11.015625 2.71875 -10.859375 C 2.5625 -10.710938 2.375 -10.640625 2.15625 -10.640625 C 1.925781 -10.640625 1.734375 -10.710938 1.578125 -10.859375 C 1.421875 -11.015625 1.34375 -11.25 1.34375 -11.5625 Z M 1.34375 -11.5625 "/></g></g></g><path fill="#f7c340" d="M 529.222656 807.082031 C 496.75 807.082031 467.457031 798.375 439.683594 780.460938 C 408.5625 760.390625 380.554688 735.34375 353.472656 711.128906 C 348.699219 706.855469 343.921875 702.582031 339.128906 698.335938 C 325.503906 686.269531 311.605469 674.058594 298.164062 662.246094 C 250.613281 620.453125 201.433594 577.234375 155.246094 532.375 C 145.097656 522.515625 138.152344 513.871094 132.710938 504.347656 C 116.234375 475.480469 116.800781 464.074219 135.589844 446.242188 C 140.542969 441.542969 149.453125 438.851562 160.035156 438.851562 C 172.125 438.851562 184.269531 442.3125 193.347656 448.339844 C 208.441406 458.359375 237.457031 484.679688 265.515625 510.132812 C 287.523438 530.097656 308.3125 548.953125 323.042969 560.679688 C 324.359375 561.726562 325.894531 562.28125 327.472656 562.28125 C 327.480469 562.28125 327.480469 562.28125 327.480469 562.28125 C 330.1875 562.28125 332.726562 560.65625 333.949219 558.152344 C 335.152344 555.6875 334.835938 552.898438 333.105469 550.683594 C 310.90625 522.277344 256.15625 465.960938 230.308594 440.152344 C 218.371094 428.234375 206.160156 416.164062 194.34375 404.496094 C 172.898438 383.3125 150.71875 361.40625 129.324219 339.503906 C 112.984375 322.789062 96.246094 302.8125 104.59375 277.332031 C 110.832031 258.304688 124.738281 247.824219 143.753906 247.824219 C 157.898438 247.824219 173.382812 253.933594 186.238281 264.578125 C 210.429688 284.628906 232.441406 308.304688 253.722656 331.195312 C 261.632812 339.699219 269.804688 348.496094 277.984375 356.988281 C 282.96875 362.160156 289.410156 369.070312 296.878906 377.058594 C 320.859375 402.742188 353.707031 437.90625 373.300781 453.421875 C 374.734375 454.554688 376.410156 455.15625 378.144531 455.15625 C 380.964844 455.15625 383.683594 453.523438 385.078125 450.980469 C 386.457031 448.46875 386.34375 445.488281 384.769531 443.007812 C 377.253906 431.15625 366.484375 419.523438 356.992188 409.253906 C 351.730469 403.566406 346.757812 398.195312 342.882812 393.378906 C 326.246094 372.71875 308.34375 352.597656 291.035156 333.144531 C 275.675781 315.875 259.792969 298.023438 244.855469 279.867188 C 238.4375 272.058594 229.214844 262.125 218.53125 250.625 C 193.222656 223.363281 161.714844 189.4375 152.511719 167.03125 C 144.613281 147.792969 150.21875 127.816406 166.808594 116.132812 C 175.183594 110.226562 184.136719 107.230469 193.410156 107.230469 C 203.621094 107.230469 213.980469 110.828125 224.1875 117.925781 C 240.375 129.183594 252.953125 144.515625 265.117188 159.351562 C 269.085938 164.195312 273.191406 169.203125 277.382812 174.011719 C 320.597656 223.695312 406.953125 321.371094 439.867188 358.015625 C 441.09375 359.378906 442.730469 360.128906 444.480469 360.128906 C 446.742188 360.128906 448.933594 358.839844 450.054688 356.839844 C 451.140625 354.894531 451.074219 352.558594 449.863281 350.597656 C 434.140625 324.945312 396.410156 272.605469 340.761719 199.234375 C 338.308594 195.992188 335.75 192.644531 333.128906 189.222656 C 317.171875 168.347656 299.089844 144.683594 289.457031 126.445312 C 284.527344 116.699219 284.527344 106.175781 289.476562 95.207031 C 295.742188 81.316406 308.792969 71.023438 323.546875 68.355469 C 325.964844 67.921875 328.40625 67.695312 330.808594 67.695312 C 339.535156 67.695312 348.117188 70.570312 356.324219 76.246094 C 368.851562 84.90625 390.03125 111.949219 412.449219 140.582031 C 427.546875 159.855469 443.15625 179.785156 457.597656 196.042969 C 465.847656 205.335938 484.761719 229.992188 504.789062 256.097656 C 530.789062 289.996094 560.261719 328.417969 573.339844 342.234375 C 583.960938 353.453125 595.613281 359.140625 607.976562 359.140625 C 613.023438 359.140625 618.246094 358.179688 623.5 356.292969 C 641.585938 349.78125 651.40625 334.949219 651.160156 314.539062 C 650.675781 273.828125 662.046875 241.242188 685.917969 214.914062 C 698.957031 200.535156 731.128906 188.832031 757.640625 188.832031 C 767.613281 188.832031 775.957031 190.527344 781.769531 193.714844 C 800.878906 204.222656 806.597656 223.46875 796.683594 243.953125 C 793.757812 249.996094 790.6875 256.097656 787.714844 262 C 772.816406 291.601562 757.40625 322.214844 754.234375 357.878906 C 752.464844 377.785156 755.160156 396.980469 757.769531 415.546875 C 758.722656 422.308594 759.710938 429.300781 760.453125 436.1875 C 762.09375 451.425781 764.546875 466.855469 766.925781 481.785156 C 772.613281 517.546875 778.503906 554.523438 773.476562 590.949219 L 773.457031 591.082031 L 773.453125 591.207031 C 770.550781 651.890625 735.652344 698.335938 706.890625 726.617188 C 673.015625 759.925781 628.351562 786.777344 587.414062 798.441406 C 567.109375 804.179688 547.527344 807.082031 529.222656 807.082031 " fill-opacity="1" fill-rule="nonzero"/><g clip-path="url(#f375b473eb)"><path fill="#c08625" d="M 330.808594 64.78125 C 328.253906 64.78125 325.660156 65.007812 323.023438 65.484375 C 307.125 68.359375 293.457031 79.285156 286.8125 94.011719 C 282.453125 103.6875 280.695312 115.578125 286.875 127.804688 C 298.214844 149.273438 320.941406 177.921875 338.441406 200.996094 C 366.417969 237.882812 425.273438 316.074219 447.378906 352.121094 C 448.933594 354.65625 446.800781 357.214844 444.480469 357.214844 C 443.636719 357.214844 442.765625 356.875 442.039062 356.066406 C 409.183594 319.496094 322.378906 221.304688 279.578125 172.097656 C 262.53125 152.5 247.707031 130.722656 225.847656 115.53125 C 215.167969 108.105469 204.175781 104.316406 193.410156 104.316406 C 183.664062 104.316406 174.101562 107.425781 165.125 113.75 C 148.652344 125.355469 140.757812 146.089844 149.816406 168.140625 C 163.082031 200.433594 220.738281 255.132812 242.605469 281.714844 C 274.410156 320.390625 309.269531 356.285156 340.613281 395.207031 C 351.617188 408.875 370.816406 426.460938 382.304688 444.574219 C 384.625 448.226562 381.636719 452.246094 378.144531 452.246094 C 377.140625 452.246094 376.089844 451.910156 375.113281 451.132812 C 349.667969 430.984375 301.183594 376.878906 280.085938 354.96875 C 249.878906 323.601562 221.457031 289.972656 188.101562 262.339844 C 174.652344 251.195312 158.578125 244.910156 143.753906 244.910156 C 125.421875 244.910156 109.007812 254.511719 101.828125 276.425781 C 93.003906 303.335938 110.125 324.035156 127.234375 341.542969 C 160.453125 375.539062 194.65625 408.675781 228.25 442.214844 C 254.261719 468.1875 308.699219 524.183594 330.800781 552.476562 C 333.21875 555.566406 330.609375 559.367188 327.480469 559.367188 C 326.613281 559.367188 325.710938 559.078125 324.863281 558.398438 C 290.902344 531.367188 221.839844 463.757812 194.957031 445.910156 C 184.898438 439.226562 171.886719 435.9375 160.035156 435.9375 C 149.1875 435.9375 139.316406 438.691406 133.582031 444.128906 C 113.359375 463.320312 113.242188 476.109375 130.179688 505.792969 C 136.464844 516.808594 144.386719 525.890625 153.222656 534.46875 C 212.515625 592.0625 275.355469 645.738281 337.195312 700.519531 C 369.703125 729.316406 401.375 759.234375 438.097656 782.914062 C 467.300781 801.746094 497.730469 810 529.222656 810 C 548.496094 810 568.179688 806.90625 588.214844 801.25 C 664.445312 779.523438 771.191406 699.476562 776.363281 591.351562 C 783.558594 539.234375 768.941406 487.667969 763.347656 435.878906 C 760.578125 410.167969 754.757812 384.945312 757.140625 358.136719 C 760.886719 315.980469 781.757812 281.488281 799.304688 245.226562 C 809.820312 223.507812 803.734375 202.460938 783.179688 191.160156 C 776.578125 187.539062 767.605469 185.921875 757.640625 185.921875 C 731.25 185.921875 697.957031 197.296875 683.761719 212.949219 C 657.289062 242.140625 647.789062 276.34375 648.242188 314.570312 C 648.46875 333.132812 639.835938 347.308594 622.511719 353.546875 C 617.484375 355.355469 612.644531 356.222656 607.976562 356.222656 C 595.972656 356.222656 585.148438 350.464844 575.457031 340.230469 C 552.460938 315.9375 478.867188 215.605469 459.773438 194.105469 C 423.613281 153.390625 379.390625 88.644531 357.984375 73.847656 C 349.765625 68.167969 340.617188 64.78125 330.808594 64.78125 Z M 330.808594 70.613281 C 338.933594 70.613281 346.960938 73.3125 354.667969 78.648438 C 366.832031 87.054688 387.878906 113.929688 410.160156 142.382812 C 425.28125 161.691406 440.910156 181.65625 455.414062 197.980469 C 463.59375 207.191406 482.484375 231.8125 502.476562 257.878906 C 528.523438 291.828125 558.042969 330.3125 571.222656 344.238281 C 582.410156 356.058594 594.78125 362.054688 607.976562 362.054688 C 613.363281 362.054688 618.917969 361.042969 624.488281 359.035156 C 643.546875 352.171875 654.332031 335.9375 654.074219 314.503906 C 653.847656 294.96875 656.25 277.859375 661.441406 262.207031 C 667.054688 245.28125 675.765625 230.453125 688.085938 216.867188 C 700.636719 203.019531 731.839844 191.753906 757.640625 191.753906 C 767.121094 191.753906 774.980469 193.3125 780.367188 196.277344 C 789.050781 201.046875 794.90625 207.847656 797.300781 215.9375 C 799.710938 224.078125 798.582031 233.328125 794.058594 242.683594 C 791.144531 248.703125 788.082031 254.792969 785.109375 260.683594 C 770.085938 290.539062 754.550781 321.40625 751.328125 357.617188 C 749.527344 377.859375 752.253906 397.226562 754.882812 415.949219 C 755.832031 422.6875 756.816406 429.660156 757.550781 436.503906 C 759.199219 451.8125 761.667969 467.28125 764.042969 482.238281 C 769.707031 517.785156 775.554688 554.546875 770.582031 590.554688 L 770.550781 590.8125 L 770.539062 591.070312 C 767.679688 650.808594 733.238281 696.625 704.847656 724.539062 C 671.300781 757.523438 627.097656 784.105469 586.628906 795.636719 C 566.574219 801.296875 547.261719 804.167969 529.222656 804.167969 C 497.328125 804.167969 468.554688 795.609375 441.261719 778.011719 C 410.335938 758.070312 382.417969 733.097656 355.417969 708.949219 C 350.71875 704.746094 345.859375 700.40625 341.058594 696.152344 C 327.4375 684.085938 313.535156 671.867188 300.097656 660.058594 C 252.5625 618.289062 203.414062 575.09375 157.28125 530.285156 C 147.339844 520.628906 140.542969 512.179688 135.246094 502.898438 C 126.851562 488.1875 123.414062 478.746094 123.773438 471.300781 C 124.121094 463.996094 128.121094 457.355469 137.597656 448.363281 C 141.953125 444.230469 150.339844 441.769531 160.035156 441.769531 C 171.5625 441.769531 183.117188 445.046875 191.730469 450.765625 C 206.644531 460.664062 235.574219 486.910156 263.558594 512.292969 C 285.597656 532.289062 306.421875 551.175781 321.230469 562.960938 C 323.0625 564.425781 325.226562 565.199219 327.480469 565.199219 C 331.292969 565.199219 334.859375 562.933594 336.574219 559.429688 C 338.246094 555.996094 337.800781 551.953125 335.402344 548.890625 C 313.121094 520.371094 258.265625 463.941406 232.367188 438.089844 C 220.421875 426.160156 208.203125 414.085938 196.386719 402.414062 C 174.949219 381.242188 152.789062 359.347656 131.40625 337.46875 C 114.945312 320.625 99.53125 302.171875 107.371094 278.238281 C 113.179688 260.507812 126.101562 250.742188 143.753906 250.742188 C 157.230469 250.742188 172.042969 256.601562 184.375 266.824219 C 208.425781 286.75 230.363281 310.355469 251.582031 333.175781 C 259.5 341.695312 267.683594 350.503906 275.882812 359.015625 C 280.847656 364.167969 287.292969 371.0625 294.746094 379.054688 C 318.796875 404.800781 351.722656 440.058594 371.488281 455.707031 C 373.445312 457.253906 375.75 458.078125 378.144531 458.078125 C 382.066406 458.078125 385.703125 455.894531 387.632812 452.382812 C 389.535156 448.929688 389.382812 444.839844 387.230469 441.449219 C 379.574219 429.375 368.714844 417.636719 359.136719 407.277344 C 353.90625 401.628906 348.96875 396.289062 345.15625 391.550781 C 328.472656 370.832031 310.546875 350.6875 293.210938 331.199219 C 277.871094 313.953125 262.007812 296.125 247.109375 278.015625 C 240.632812 270.140625 231.378906 260.175781 220.667969 248.640625 C 195.519531 221.550781 164.214844 187.84375 155.210938 165.917969 C 151.429688 156.707031 150.824219 147.316406 153.46875 138.746094 C 155.960938 130.679688 161.15625 123.683594 168.488281 118.519531 C 176.363281 112.960938 184.746094 110.148438 193.410156 110.148438 C 203.019531 110.148438 212.816406 113.574219 222.519531 120.316406 C 238.382812 131.339844 250.273438 145.84375 262.859375 161.199219 C 266.847656 166.058594 270.964844 171.085938 275.179688 175.929688 C 318.425781 225.644531 404.792969 323.335938 437.695312 359.964844 C 439.488281 361.953125 441.894531 363.046875 444.480469 363.046875 C 447.832031 363.046875 450.945312 361.210938 452.597656 358.261719 C 454.207031 355.386719 454.117188 351.949219 452.355469 349.070312 C 436.582031 323.347656 398.796875 270.925781 343.085938 197.472656 C 340.625 194.230469 338.0625 190.878906 335.445312 187.449219 C 319.578125 166.679688 301.585938 143.148438 292.054688 125.125 C 287.550781 116.175781 287.582031 106.511719 292.136719 96.410156 C 298.007812 83.371094 310.246094 73.722656 324.0625 71.222656 C 326.308594 70.816406 328.582031 70.613281 330.808594 70.613281 " fill-opacity="1" fill-rule="nonzero"/></g><path fill="#53524e" d="M 442.503906 22.425781 C 491.25 49.859375 530.707031 92.085938 555.425781 142.21875 C 562.269531 156.097656 567.769531 170.457031 572.128906 185.355469 C 575.570312 197.09375 593.96875 192.097656 590.511719 180.28125 C 573.886719 123.507812 539.707031 71.929688 493.828125 34.542969 C 480.734375 23.871094 466.847656 14.257812 452.125 5.972656 C 441.421875 -0.046875 431.804688 16.40625 442.503906 22.425781 " fill-opacity="1" fill-rule="nonzero"/><path fill="#53524e" d="M 422.984375 78.597656 C 466.15625 103.941406 498.019531 146.300781 511.738281 194.339844 C 515.097656 206.109375 533.488281 201.109375 530.109375 189.273438 C 518.4375 148.390625 494.691406 110.746094 462.191406 83.222656 C 452.941406 75.382812 443.0625 68.28125 432.605469 62.144531 C 422.003906 55.921875 412.402344 72.382812 422.984375 78.597656 " fill-opacity="1" fill-rule="nonzero"/><path fill="#53524e" d="M 5.832031 536.816406 C 31.398438 590.027344 73.777344 635.015625 124.925781 664.410156 C 139.660156 672.886719 155.179688 679.984375 171.148438 685.804688 C 175.980469 687.566406 181.582031 683.820312 182.871094 679.148438 C 184.324219 673.84375 181.066406 669.199219 176.214844 667.425781 C 124.578125 648.621094 78.496094 613.28125 46.585938 568.425781 C 37.324219 555.402344 29.207031 541.597656 22.285156 527.199219 C 20.058594 522.558594 13.433594 521.332031 9.25 523.78125 C 4.511719 526.554688 3.589844 532.160156 5.832031 536.816406 " fill-opacity="1" fill-rule="nonzero"/><path fill="#53524e" d="M 63.148438 520.96875 C 82.125 558.6875 113.144531 590.1875 149.945312 610.757812 C 160.828125 616.839844 172.28125 621.929688 184.023438 626.121094 C 188.867188 627.84375 194.449219 624.164062 195.738281 619.464844 C 197.191406 614.183594 193.953125 609.480469 189.085938 607.742188 C 142.035156 590.964844 102.066406 555.988281 79.601562 511.347656 C 77.292969 506.757812 70.804688 505.453125 66.566406 507.933594 C 61.890625 510.667969 60.824219 516.355469 63.148438 520.96875 " fill-opacity="1" fill-rule="nonzero"/></svg>