<svg xmlns="http://www.w3.org/2000/svg" xmlns:xlink="http://www.w3.org/1999/xlink" width="1080" zoomAndPan="magnify" viewBox="0 0 810 374.999991" height="500" preserveAspectRatio="xMidYMid meet" version="1.0"><defs><g/><clipPath id="0b48d5e685"><path d="M 387 130 L 710 130 L 710 337 L 387 337 Z M 387 130 " clip-rule="nonzero"/></clipPath><clipPath id="3646c6ddd1"><path d="M 389.699219 127.292969 L 726.980469 271.332031 L 686.332031 366.515625 L 349.050781 222.476562 Z M 389.699219 127.292969 " clip-rule="nonzero"/></clipPath><clipPath id="09bf141fff"><path d="M 389.699219 127.292969 L 726.980469 271.332031 L 686.332031 366.515625 L 349.050781 222.476562 Z M 389.699219 127.292969 " clip-rule="nonzero"/></clipPath><clipPath id="1d1eb08fef"><path d="M 422 192 L 424 192 L 424 194 L 422 194 Z M 422 192 " clip-rule="nonzero"/></clipPath><clipPath id="d4177b0eea"><path d="M 389.699219 127.292969 L 726.980469 271.332031 L 686.332031 366.515625 L 349.050781 222.476562 Z M 389.699219 127.292969 " clip-rule="nonzero"/></clipPath><clipPath id="ed2533d9cf"><path d="M 389.699219 127.292969 L 726.980469 271.332031 L 686.332031 366.515625 L 349.050781 222.476562 Z M 389.699219 127.292969 " clip-rule="nonzero"/></clipPath></defs><g clip-path="url(#0b48d5e685)"><g clip-path="url(#3646c6ddd1)"><g clip-path="url(#09bf141fff)"><path fill="#000000" d="M 393.878906 132.355469 C 393.601562 132.515625 393.464844 132.769531 393.460938 133.089844 C 392.457031 133.578125 391.164062 132.316406 390.292969 133.628906 C 387.058594 134.917969 386.933594 137.59375 387.304688 140.453125 C 388.371094 148.464844 390.71875 156.136719 393.535156 163.671875 C 403.652344 190.648438 418.9375 214.265625 438.566406 235.414062 C 472.824219 272.34375 515.386719 293.605469 564.09375 303.511719 C 586.671875 308.109375 609.632812 308.675781 632.617188 308.175781 C 646.128906 307.878906 659.574219 306.773438 673.058594 305.992188 C 673.527344 305.753906 673.988281 305.503906 674.460938 305.265625 C 675.019531 305.472656 675.710938 305.546875 676.074219 305.941406 C 676.074219 305.941406 676.074219 305.941406 676.082031 305.957031 C 676.363281 306.269531 675.914062 306.667969 675.429688 306.695312 C 671.402344 310.144531 666.785156 312.628906 662.035156 314.863281 C 658.785156 316.398438 655.746094 318.125 653.261719 320.753906 C 646.242188 324 643.664062 329.585938 645.808594 336.3125 C 661.230469 336.863281 673.789062 329.816406 685.972656 321.605469 C 690.507812 318.554688 695.234375 315.820312 699.917969 313.007812 C 711.140625 306.289062 709.136719 306.628906 709.0625 295.984375 C 709.046875 293.601562 708.480469 291.265625 707.675781 289.003906 C 707.382812 288.167969 707.03125 287.429688 706.171875 287.0625 C 706.003906 284.347656 703.917969 283.425781 701.835938 282.628906 C 695.664062 280.257812 689.46875 277.964844 683.273438 275.644531 C 682.296875 274.402344 680.882812 274.046875 679.445312 273.757812 C 678.515625 272.476562 677.078125 272.144531 675.679688 271.753906 C 675.167969 270.738281 674.066406 270.5625 673.207031 270.046875 C 661.601562 263.039062 650.953125 254.832031 641.738281 244.832031 C 641.039062 244.074219 640.289062 243.386719 639.5625 242.664062 C 638.707031 241.796875 637.742188 240.808594 636.503906 241.429688 C 635.566406 241.898438 635.167969 243.308594 635.457031 244.15625 C 636.71875 247.910156 635.472656 251.824219 636.375 255.558594 C 636.773438 257.21875 637.8125 258.578125 638.898438 259.941406 C 647.214844 270.503906 657.167969 279.300781 668.046875 287.101562 C 669.019531 287.800781 670.125 288.359375 670.917969 289.230469 C 671.84375 290.242188 671.101562 291.078125 670.160156 291.695312 C 668.976562 291.011719 667.875 291.132812 666.839844 291.972656 C 665.640625 291.566406 664.441406 291.261719 663.339844 292.222656 C 663.109375 291.960938 662.886719 291.96875 662.671875 292.230469 C 661.539062 291.804688 660.417969 291.59375 659.355469 292.421875 C 658.523438 292.304688 657.691406 292.066406 656.855469 292.09375 C 647.675781 292.335938 638.503906 292.726562 629.324219 292.867188 C 620.988281 292.996094 612.664062 292.863281 604.335938 292.835938 C 602.136719 292.5625 599.957031 292.207031 597.765625 292.019531 C 576.417969 290.09375 555.628906 285.628906 535.558594 278.058594 C 528.390625 275.351562 521.3125 272.433594 514.199219 269.601562 C 513.183594 268.28125 511.679688 267.996094 510.179688 267.679688 C 509.238281 266.390625 507.816406 266.09375 506.386719 265.777344 C 505.578125 264.488281 504.1875 264.292969 502.898438 263.890625 C 502.441406 262.988281 501.640625 262.6875 500.703125 262.628906 C 500.515625 262.3125 500.246094 262.183594 499.878906 262.246094 C 499.359375 261.257812 498.277344 261.0625 497.441406 260.527344 C 493.324219 257.867188 488.75 255.960938 484.953125 252.789062 C 484.414062 252.984375 483.046875 252.625 484.335938 253.957031 C 485.195312 254.855469 485.121094 255.191406 484.722656 255.332031 C 484.378906 255.449219 483.785156 255.417969 483.332031 255.445312 C 470.59375 246.640625 459.070312 236.40625 448.210938 225.410156 C 447.296875 224.296875 446.375 223.179688 445.460938 222.066406 C 440.007812 215.414062 434.542969 208.753906 429.085938 202.113281 C 429.074219 201.753906 428.960938 201.46875 428.757812 201.25 C 428.617188 201.101562 428.445312 200.984375 428.234375 200.894531 C 428.214844 200.3125 427.925781 199.921875 427.394531 199.710938 C 427.394531 199.121094 427.105469 198.730469 426.558594 198.527344 C 426.578125 197.929688 426.285156 197.539062 425.726562 197.328125 C 425.746094 196.730469 425.476562 196.324219 424.910156 196.125 C 424.949219 195.519531 424.675781 195.125 424.109375 194.925781 L 424.101562 194.910156 C 424.144531 194.324219 423.878906 193.914062 423.324219 193.722656 L 423.304688 193.699219 C 423.082031 193.292969 422.824219 192.886719 422.546875 192.503906 L 422.519531 192.460938 C 422.5625 191.875 422.320312 191.476562 421.761719 191.269531 L 421.734375 191.226562 C 421.777344 190.640625 421.535156 190.242188 420.976562 190.03125 L 420.949219 189.992188 C 420.949219 189.992188 420.941406 189.972656 420.941406 189.972656 C 420.941406 189.972656 420.949219 189.992188 420.949219 189.992188 C 421.011719 189.398438 420.753906 188.992188 420.195312 188.785156 L 420.175781 188.761719 C 420.238281 188.167969 419.980469 187.761719 419.421875 187.554688 L 419.414062 187.535156 C 419.464844 186.9375 419.214844 186.519531 418.660156 186.296875 C 416.566406 182.347656 414.488281 178.40625 412.394531 174.457031 C 410.664062 172.742188 409.949219 170.445312 408.949219 168.324219 C 409.121094 168.101562 409.316406 167.949219 409.527344 167.832031 C 409.859375 167.648438 410.214844 167.578125 410.636719 167.625 C 410.054688 165.945312 409.597656 164.214844 408.285156 162.902344 C 407.847656 162.539062 407.476562 162.128906 407.285156 161.574219 C 407.617188 162.011719 407.941406 162.460938 408.285156 162.902344 C 408.207031 162.324219 408.066406 161.789062 407.441406 161.628906 C 407.636719 160.753906 407.335938 160.046875 406.714844 159.425781 C 406.851562 158.867188 406.714844 158.425781 406.164062 158.160156 C 406.152344 157.5625 406.015625 157.050781 405.457031 156.734375 C 405.492188 156.441406 405.441406 156.183594 405.214844 155.953125 C 404.941406 154.214844 404.320312 152.621094 403.316406 151.171875 C 403.054688 149.953125 402.828125 148.722656 401.960938 147.746094 C 402.082031 146.910156 401.640625 146.25 401.265625 145.574219 C 400.246094 140.769531 398.351562 136.183594 398.238281 130.957031 C 396.601562 131.789062 394.875 130.785156 393.878906 132.355469 Z M 662.4375 293.222656 C 662.425781 293.21875 662.425781 293.21875 662.414062 293.210938 C 662.40625 293.226562 662.421875 293.230469 662.421875 293.230469 C 662.40625 293.226562 662.402344 293.207031 662.402344 293.207031 C 662.402344 293.207031 662.414062 293.210938 662.414062 293.210938 C 662.417969 293.199219 662.425781 293.1875 662.417969 293.171875 C 662.4375 293.191406 662.429688 293.207031 662.4375 293.222656 Z M 417.925781 190.5 C 417.96875 190.609375 418.011719 190.714844 418.054688 190.820312 C 418.035156 190.796875 418.015625 190.777344 417.996094 190.753906 C 417.945312 190.671875 417.890625 190.589844 417.839844 190.492188 C 417.855469 190.5 417.882812 190.496094 417.925781 190.5 Z M 429.007812 202.082031 C 429.003906 202.09375 428.992188 202.089844 428.984375 202.101562 C 428.949219 202.117188 428.921875 202.148438 428.886719 202.160156 L 428.761719 202.210938 L 428.992188 202.089844 C 428.996094 202.078125 428.984375 202.070312 428.988281 202.058594 C 428.984375 202.070312 428.996094 202.078125 429.007812 202.082031 Z M 417.390625 190.480469 C 417.535156 190.480469 417.683594 190.484375 417.8125 190.496094 C 417.863281 190.578125 417.917969 190.660156 417.972656 190.742188 C 417.835938 190.578125 417.640625 190.480469 417.390625 190.480469 Z M 418.304688 191.3125 C 418.363281 191.410156 418.425781 191.511719 418.472656 191.605469 C 418.46875 191.617188 418.480469 191.625 418.476562 191.636719 C 418.421875 191.523438 418.363281 191.410156 418.304688 191.3125 Z M 392.761719 141.574219 C 392.75 141.566406 392.742188 141.550781 392.730469 141.546875 C 392.730469 141.546875 392.722656 141.527344 392.722656 141.527344 C 392.726562 141.515625 392.71875 141.496094 392.726562 141.484375 C 392.746094 141.507812 392.746094 141.539062 392.761719 141.574219 Z M 393.222656 143.703125 C 393.210938 143.730469 393.203125 143.753906 393.222656 143.777344 C 393.230469 143.753906 393.21875 143.71875 393.222656 143.703125 Z M 406.511719 161.140625 C 406.410156 161.140625 406.300781 161.15625 406.179688 161.191406 C 406.195312 161.125 406.210938 161.058594 406.222656 160.988281 C 406.316406 161.042969 406.417969 161.085938 406.511719 161.140625 Z M 405.457031 157.429688 C 405.363281 157.269531 405.324219 157.078125 405.34375 156.863281 C 405.34375 156.863281 405.34375 156.863281 405.355469 156.871094 C 405.355469 157.078125 405.378906 157.265625 405.457031 157.429688 Z M 405.457031 157.429688 " fill-opacity="1" fill-rule="nonzero"/></g></g></g><g clip-path="url(#1d1eb08fef)"><g clip-path="url(#d4177b0eea)"><g clip-path="url(#ed2533d9cf)"><path fill="#000000" d="M 422.484375 192.445312 C 422.738281 192.851562 423 193.242188 423.242188 193.640625 C 423.292969 193.042969 423.03125 192.652344 422.484375 192.445312 Z M 422.484375 192.445312 " fill-opacity="1" fill-rule="nonzero"/></g></g></g><g fill="#000000" fill-opacity="1"><g transform="translate(0.00000972, 123.017755)"><g><path d="M 117.796875 9.34375 C 115.234375 9.882812 112.375 10.15625 109.21875 10.15625 C 106.0625 10.15625 103.15625 9.535156 100.5 8.296875 C 97.84375 7.066406 95.832031 4.941406 94.46875 1.921875 C 93.269531 -0.910156 92.71875 -4.132812 92.8125 -7.75 C 92.90625 -11.375 93.25 -14.992188 93.84375 -18.609375 C 94.4375 -22.222656 94.828125 -25.492188 95.015625 -28.421875 C 95.191406 -30.253906 95.367188 -32.722656 95.546875 -35.828125 C 95.734375 -38.941406 95.828125 -42.171875 95.828125 -45.515625 C 95.828125 -48.859375 95.644531 -51.925781 95.28125 -54.71875 C 94.914062 -57.507812 94.320312 -59.5 93.5 -60.6875 C 92.40625 -62.238281 91.46875 -62.832031 90.6875 -62.46875 C 89.90625 -62.101562 89.238281 -61.164062 88.6875 -59.65625 C 88.144531 -58.144531 87.710938 -56.40625 87.390625 -54.4375 C 87.066406 -52.46875 86.8125 -50.632812 86.625 -48.9375 C 86.445312 -47.25 86.3125 -46.085938 86.21875 -45.453125 C 86.039062 -43.429688 85.859375 -41.070312 85.671875 -38.375 C 85.492188 -35.675781 85.128906 -33.019531 84.578125 -30.40625 C 84.023438 -27.800781 83.15625 -25.515625 81.96875 -23.546875 C 80.78125 -21.578125 79.085938 -20.273438 76.890625 -19.640625 C 72.222656 -18.359375 68.398438 -18.21875 65.421875 -19.21875 C 62.441406 -20.226562 60.082031 -22.015625 58.34375 -24.578125 C 56.613281 -27.140625 55.289062 -30.132812 54.375 -33.5625 C 53.457031 -37 52.769531 -40.523438 52.3125 -44.140625 C 51.851562 -47.753906 51.441406 -51.09375 51.078125 -54.15625 C 50.710938 -57.226562 50.160156 -59.632812 49.421875 -61.375 C 48.785156 -62.925781 48.125 -64.316406 47.4375 -65.546875 C 46.75 -66.785156 45.96875 -67.5 45.09375 -67.6875 C 44.226562 -67.875 43.25 -67.097656 42.15625 -65.359375 C 40.957031 -63.066406 40.335938 -60.132812 40.296875 -56.5625 C 40.253906 -53 40.484375 -49.429688 40.984375 -45.859375 C 41.484375 -42.285156 41.875 -39.3125 42.15625 -36.9375 C 42.519531 -34.09375 43.046875 -30.863281 43.734375 -27.25 C 44.421875 -23.632812 45.035156 -19.90625 45.578125 -16.0625 C 46.128906 -12.21875 46.3125 -8.578125 46.125 -5.140625 C 45.945312 -1.710938 45.191406 1.253906 43.859375 3.765625 C 42.535156 6.285156 40.363281 8.050781 37.34375 9.0625 C 34.226562 9.789062 30.953125 10.128906 27.515625 10.078125 C 24.085938 10.035156 20.953125 9.351562 18.109375 8.03125 C 15.273438 6.707031 13.082031 4.488281 11.53125 1.375 C 9.238281 -3.382812 7.726562 -8.601562 7 -14.28125 C 6.269531 -19.957031 5.675781 -25.21875 5.21875 -30.0625 C 4.570312 -35.925781 4.226562 -42.015625 4.1875 -48.328125 C 4.144531 -54.640625 4.738281 -60.90625 5.96875 -67.125 C 7.207031 -73.351562 9.472656 -79.304688 12.765625 -84.984375 C 14.867188 -88.554688 17.546875 -91.710938 20.796875 -94.453125 C 24.046875 -97.203125 27.679688 -99.378906 31.703125 -100.984375 C 35.734375 -102.585938 39.945312 -103.296875 44.34375 -103.109375 C 48.46875 -103.015625 52.128906 -102.003906 55.328125 -100.078125 C 58.535156 -98.160156 61.375 -95.757812 63.84375 -92.875 C 66.3125 -90 68.414062 -86.957031 70.15625 -83.75 C 73.082031 -88.601562 76.789062 -92.609375 81.28125 -95.765625 C 85.769531 -98.921875 90.578125 -100.929688 95.703125 -101.796875 C 100.828125 -102.671875 105.722656 -102.125 110.390625 -100.15625 C 115.054688 -98.1875 119.035156 -94.503906 122.328125 -89.109375 C 125.347656 -83.890625 127.566406 -78.304688 128.984375 -72.359375 C 130.410156 -66.410156 131.257812 -60.273438 131.53125 -53.953125 C 131.800781 -47.640625 131.753906 -41.320312 131.390625 -35 C 131.023438 -28.6875 130.613281 -22.554688 130.15625 -16.609375 C 129.789062 -12.585938 129.445312 -8.789062 129.125 -5.21875 C 128.8125 -1.644531 127.875 1.421875 126.3125 3.984375 C 124.757812 6.546875 121.921875 8.332031 117.796875 9.34375 Z M 117.796875 9.34375 "/></g></g><g transform="translate(135.786348, 123.017755)"><g><path d="M 27.046875 1.78125 C 20.910156 -0.78125 16.054688 -4.441406 12.484375 -9.203125 C 8.921875 -13.960938 6.5 -19.25 5.21875 -25.0625 C 3.9375 -30.875 3.707031 -36.773438 4.53125 -42.765625 C 5.351562 -48.765625 7.160156 -54.367188 9.953125 -59.578125 C 12.742188 -64.796875 16.359375 -69.144531 20.796875 -72.625 C 25.234375 -76.101562 30.472656 -78.253906 36.515625 -79.078125 C 42.554688 -79.898438 49.238281 -78.847656 56.5625 -75.921875 C 62.0625 -73.640625 66.617188 -70.503906 70.234375 -66.515625 C 73.847656 -62.535156 76.546875 -58.097656 78.328125 -53.203125 C 80.109375 -48.304688 81.066406 -43.25 81.203125 -38.03125 C 81.347656 -32.8125 80.734375 -27.773438 79.359375 -22.921875 C 77.890625 -17.984375 75.460938 -13.476562 72.078125 -9.40625 C 68.691406 -5.332031 64.59375 -2.015625 59.78125 0.546875 C 54.976562 3.109375 49.785156 4.570312 44.203125 4.9375 C 38.617188 5.300781 32.898438 4.25 27.046875 1.78125 Z M 33.640625 -30.203125 C 34.273438 -27.367188 35.507812 -24.804688 37.34375 -22.515625 C 39.175781 -20.222656 41.394531 -18.894531 44 -18.53125 C 46.613281 -18.164062 49.335938 -19.359375 52.171875 -22.109375 C 54.273438 -24.210938 55.757812 -26.679688 56.625 -29.515625 C 57.5 -32.359375 57.9375 -35.289062 57.9375 -38.3125 C 57.9375 -41.332031 57.570312 -44.125 56.84375 -46.6875 C 56.476562 -48.332031 55.769531 -50.046875 54.71875 -51.828125 C 53.664062 -53.609375 52.335938 -55.140625 50.734375 -56.421875 C 49.128906 -57.710938 47.363281 -58.398438 45.4375 -58.484375 C 43.519531 -58.578125 41.554688 -57.707031 39.546875 -55.875 C 37.347656 -53.769531 35.742188 -51.207031 34.734375 -48.1875 C 33.722656 -45.164062 33.171875 -42.078125 33.078125 -38.921875 C 32.992188 -35.765625 33.179688 -32.859375 33.640625 -30.203125 Z M 33.640625 -30.203125 "/></g></g><g transform="translate(221.184835, 123.017755)"><g><path d="M 15.515625 0.546875 C 12.398438 -0.0859375 9.945312 -0.976562 8.15625 -2.125 C 6.375 -3.269531 5.300781 -5.078125 4.9375 -7.546875 C 4.664062 -9.472656 4.53125 -12.21875 4.53125 -15.78125 C 4.53125 -19.351562 4.550781 -24.207031 4.59375 -30.34375 C 4.644531 -36.476562 4.578125 -44.210938 4.390625 -53.546875 C 4.390625 -57.753906 4.296875 -61.390625 4.109375 -64.453125 C 3.929688 -67.523438 4.046875 -70.160156 4.453125 -72.359375 C 4.867188 -74.554688 5.859375 -76.382812 7.421875 -77.84375 C 8.878906 -79.21875 11.023438 -80.203125 13.859375 -80.796875 C 16.703125 -81.390625 19.675781 -81.570312 22.78125 -81.34375 C 25.894531 -81.113281 28.597656 -80.519531 30.890625 -79.5625 C 33.179688 -78.601562 34.507812 -77.300781 34.875 -75.65625 C 36.519531 -76.84375 37.957031 -77.753906 39.1875 -78.390625 C 40.425781 -79.035156 41.78125 -79.472656 43.25 -79.703125 C 44.71875 -79.929688 46.59375 -80.046875 48.875 -80.046875 C 51.894531 -80.046875 55.050781 -79.703125 58.34375 -79.015625 C 61.644531 -78.328125 64.710938 -76.972656 67.546875 -74.953125 C 70.390625 -72.941406 72.632812 -69.925781 74.28125 -65.90625 C 76.382812 -60.957031 77.78125 -54.640625 78.46875 -46.953125 C 79.15625 -39.265625 79.5 -30.9375 79.5 -21.96875 C 79.5 -18.125 79.335938 -14.941406 79.015625 -12.421875 C 78.691406 -9.910156 77.523438 -7.738281 75.515625 -5.90625 C 74.140625 -4.625 72.257812 -3.726562 69.875 -3.21875 C 67.5 -2.71875 65.117188 -2.742188 62.734375 -3.296875 C 60.359375 -3.847656 58.441406 -4.992188 56.984375 -6.734375 C 55.785156 -8.097656 54.976562 -9.421875 54.5625 -10.703125 C 54.15625 -11.984375 53.972656 -13.492188 54.015625 -15.234375 C 54.066406 -16.972656 54.09375 -19.171875 54.09375 -21.828125 C 54.09375 -25.035156 54 -28.171875 53.8125 -31.234375 C 53.632812 -34.296875 53.316406 -37.660156 52.859375 -41.328125 C 52.492188 -44.984375 51.710938 -47.726562 50.515625 -49.5625 C 49.328125 -51.394531 47.957031 -52.3125 46.40625 -52.3125 C 43.019531 -52.3125 40.59375 -50.523438 39.125 -46.953125 C 37.664062 -43.378906 36.9375 -37.519531 36.9375 -29.375 C 36.9375 -22.882812 36.75 -18.035156 36.375 -14.828125 C 36.007812 -11.617188 35.460938 -9.101562 34.734375 -7.28125 C 33.359375 -3.894531 30.816406 -1.535156 27.109375 -0.203125 C 23.410156 1.117188 19.546875 1.367188 15.515625 0.546875 Z M 15.515625 0.546875 "/></g></g><g transform="translate(304.798465, 123.017755)"><g/></g><g transform="translate(361.090073, 123.017755)"><g><path d="M 41.046875 4.53125 C 33.546875 2.15625 27.046875 -1.5 21.546875 -6.4375 C 16.054688 -11.382812 11.800781 -17.222656 8.78125 -23.953125 C 5.757812 -30.679688 4.179688 -37.867188 4.046875 -45.515625 C 3.910156 -53.160156 5.445312 -60.828125 8.65625 -68.515625 C 12.039062 -76.472656 16.753906 -83.128906 22.796875 -88.484375 C 28.835938 -93.835938 35.609375 -97.816406 43.109375 -100.421875 C 50.617188 -103.035156 58.351562 -104.273438 66.3125 -104.140625 C 74.28125 -104.003906 81.878906 -102.425781 89.109375 -99.40625 C 91.765625 -98.21875 94.488281 -96.796875 97.28125 -95.140625 C 100.070312 -93.492188 101.878906 -91.117188 102.703125 -88.015625 C 103.242188 -85.898438 103.191406 -83.609375 102.546875 -81.140625 C 101.910156 -78.671875 100.859375 -76.425781 99.390625 -74.40625 C 97.929688 -72.394531 96.148438 -70.976562 94.046875 -70.15625 C 91.847656 -69.332031 89.535156 -69.171875 87.109375 -69.671875 C 84.691406 -70.179688 82.289062 -70.847656 79.90625 -71.671875 C 77.53125 -72.492188 75.195312 -72.90625 72.90625 -72.90625 C 69.238281 -72.90625 65.484375 -72.445312 61.640625 -71.53125 C 57.796875 -70.613281 54.273438 -69.015625 51.078125 -66.734375 C 47.328125 -64.078125 44.488281 -60.570312 42.5625 -56.21875 C 40.632812 -51.875 39.691406 -47.390625 39.734375 -42.765625 C 39.785156 -38.140625 40.910156 -33.953125 43.109375 -30.203125 C 45.671875 -25.804688 48.921875 -22.757812 52.859375 -21.0625 C 56.796875 -19.375 61.097656 -18.644531 65.765625 -18.875 C 70.429688 -19.101562 75.097656 -19.90625 79.765625 -21.28125 C 82.878906 -22.5625 85.832031 -23.429688 88.625 -23.890625 C 91.414062 -24.347656 93.953125 -24.117188 96.234375 -23.203125 C 98.523438 -22.285156 100.5 -20.316406 102.15625 -17.296875 C 103.894531 -14.460938 104.394531 -11.421875 103.65625 -8.171875 C 102.925781 -4.921875 101.234375 -2.242188 98.578125 -0.140625 C 94.921875 2.785156 90.597656 4.910156 85.609375 6.234375 C 80.617188 7.566406 75.421875 8.28125 70.015625 8.375 C 64.617188 8.46875 59.398438 8.144531 54.359375 7.40625 C 49.328125 6.675781 44.890625 5.71875 41.046875 4.53125 Z M 41.046875 4.53125 "/></g></g><g transform="translate(469.142498, 123.017755)"><g><path d="M 57.671875 4.671875 C 52.628906 5.492188 47.796875 4.941406 43.171875 3.015625 C 38.554688 1.097656 34.253906 -1.78125 30.265625 -5.625 C 26.285156 -9.46875 22.804688 -13.929688 19.828125 -19.015625 C 16.859375 -24.097656 14.550781 -29.335938 12.90625 -34.734375 C 10.894531 -41.328125 9.316406 -48.03125 8.171875 -54.84375 C 7.023438 -61.664062 6.085938 -68.554688 5.359375 -75.515625 C 5.078125 -78.265625 4.753906 -81.238281 4.390625 -84.4375 C 4.023438 -87.644531 3.976562 -90.757812 4.25 -93.78125 C 4.53125 -96.800781 5.425781 -99.5 6.9375 -101.875 C 8.445312 -104.257812 10.941406 -106 14.421875 -107.09375 C 18.804688 -108.46875 22.875 -108.992188 26.625 -108.671875 C 30.382812 -108.347656 33.5 -106.992188 35.96875 -104.609375 C 38.4375 -102.234375 39.859375 -98.578125 40.234375 -93.640625 C 41.421875 -79.816406 42.492188 -68.554688 43.453125 -59.859375 C 44.410156 -51.160156 45.394531 -44.5 46.40625 -39.875 C 47.414062 -35.257812 48.535156 -32.082031 49.765625 -30.34375 C 51.003906 -28.601562 52.445312 -27.734375 54.09375 -27.734375 C 55.65625 -27.734375 57.003906 -28.164062 58.140625 -29.03125 C 59.285156 -29.90625 60.269531 -31.597656 61.09375 -34.109375 C 61.914062 -36.628906 62.671875 -40.382812 63.359375 -45.375 C 64.046875 -50.363281 64.734375 -56.90625 65.421875 -65 C 66.109375 -73.101562 66.816406 -83.195312 67.546875 -95.28125 C 67.273438 -98.125 67.828125 -100.390625 69.203125 -102.078125 C 70.578125 -103.773438 72.40625 -104.941406 74.6875 -105.578125 C 76.976562 -106.222656 79.425781 -106.363281 82.03125 -106 C 84.644531 -105.632812 87.09375 -104.804688 89.375 -103.515625 C 93.132812 -101.410156 95.492188 -98.664062 96.453125 -95.28125 C 97.410156 -91.894531 97.890625 -88.050781 97.890625 -83.75 C 97.890625 -80.269531 97.796875 -76.46875 97.609375 -72.34375 C 97.429688 -68.226562 97.132812 -64.113281 96.71875 -60 C 96.3125 -55.882812 95.742188 -52.128906 95.015625 -48.734375 C 93.816406 -43.335938 92.253906 -37.734375 90.328125 -31.921875 C 88.410156 -26.109375 86.007812 -20.613281 83.125 -15.4375 C 80.25 -10.269531 76.703125 -5.878906 72.484375 -2.265625 C 68.273438 1.347656 63.335938 3.660156 57.671875 4.671875 Z M 57.671875 4.671875 "/></g></g></g></svg>